<?xml version="1.0" encoding="utf-8"?>
<!-- Generator: Adobe Illustrator 19.0.0, SVG Export Plug-In . SVG Version: 6.00 Build 0)  -->
<svg version="1.1" id="圖層_1" xmlns="http://www.w3.org/2000/svg" xmlns:xlink="http://www.w3.org/1999/xlink" x="0px" y="0px"
	 viewBox="0 0 300 300" style="enable-background:new 0 0 300 300;" xml:space="preserve">
<style type="text/css">
	.st0{fill:#FFFFFF;}
</style>
<path id="XMLID_572_" class="st0" d="M-418.3,320.4h52.5v-16.5h-52.5V294h-16.5v36.2h16.5V320.4z M-300.3,325.5
	c-6,14.1-11.8,26.8-16.2,36h-166.8c13.1-41.1,45.8-119.6,83.2-119.6C-353.3,241.8-307.6,313.5-300.3,325.5 M-220.1,89.2l-12-11.3
	l-54.6,58.3l12,11.3l6.5-6.9c0.1,24.5,0.1,62.4,0.1,85.7c0,16.1-11.8,49.5-24.5,80.7c-16.9-25.3-59.7-81.6-107.4-81.6
	c-0.8,0-1.6,0.2-2.4,0.3l-17.7-53h25.4v-16.5h-74.4v16.5h31.6l19,57c-49.7,21.7-80.2,124.8-83.8,137.8l-2.9,10.4h199l2.2-4.7
	c2.1-4.4,52.3-109,52.3-147c0-30.2-0.1-85-0.2-103.2L-220.1,89.2z"/>
<path id="XMLID_597_" class="st0" d="M269.6,183.8l8.4,24.7l-13.8,1.7L269.6,183.8z M138.4,252.6H14.1c-0.2-14,1.4-47.7,19.8-67.9
	c9.9-10.8,23.6-16.3,40.7-16.3c17.2,0,31.1,5.5,41.5,16.5C135.1,205,138.1,238.5,138.4,252.6 M300,37l-13.7-2.8l-19.9,96.2l-32.8-97
	l-13.3,4.5l40.5,119.7l-11.3,54.4l-73.1,8.8l1.7,13.9l68.4-8.2l-5.4,26.2h-88.6c-0.3-15.9-3.5-53.4-26.2-77.3
	c-13.1-13.9-30.5-20.9-51.7-20.9c-21.2,0-38.4,7-51.1,20.9c-27.8,30.4-23.3,82.7-23.1,84.9l0.6,6.4h251.5l8.7-42l27.1-3.2
	c2.1-0.3,4-1.4,5.1-3.2c1.1-1.8,1.4-4,0.7-6l-18.8-55.5L300,37z"/>
<g id="XMLID_870_">
	<g id="XMLID_871_">
		<path id="XMLID_872_" class="st0" d="M-169.5,317.4c13,0,23.5-10.5,23.5-23.5s-10.5-23.5-23.5-23.5s-23.5,10.5-23.5,23.5
			C-193,306.6-182.6,317.4-169.5,317.4z M-155.2,549.6h85.8v-15.9h-85.8V549.6z M-7.5,312.6c-3.2-2.9-7.9-2.5-10.8,0.6l-28,30.2h-1
			l0,0L-93,357.7c-3.8,1.3-6,5.1-4.8,8.9c1.3,3.8,5.1,6,8.9,4.8l34.9-11.1l-52.4,137.9l-185.5,19.4c-8.3,0.6-14.3,7.9-13.3,16.5
			c0.6,8.3,7.9,14.3,16.2,13.7l212.5-22.2c8.3-0.6,14.3-8.3,13.3-16.5c-0.6-8.3-7.9-14.3-16.2-13.7l-11.1,1.3l53.7-141.7l0,0
			l21.3-6.7c3.8-1.3,6-5.4,4.8-9.2c-1-2.9-3.5-4.8-6.4-5.1l9.5-10.2C-4.4,320.6-4.7,315.5-7.5,312.6z M-298.8,452.4l22.2,12.4l0,0
			l16.5,8.9c2.5,1.9,12.1,7.9,18.1,1.9l16.5-33c0,0-11.8,0-23.5-14.3c0,0,0,7-4.8,16.5c0,0-1.3,2.9-6.4,1.9c0,0-0.3,0.6-7.3-3.2
			l-20-11.1c-3.2-1.9-7.3-0.6-9.2,2.5l-5.1,8.3C-303.3,446.4-302.3,450.5-298.8,452.4z M-263.2,376.2c0,0,9.5,7.3,11.8,0.3
			l18.7-30.2h16.5c0,0,4.8-0.3,0,9.2l-21,47c0,0-14,18.7,28.3,28.3c0,0,11.8,2.2,25.7,7c0,0,6,1.9,10.2,10.8l2.9,14.9
			c0,0.3,0,1,0,1.3l5.1,24.8c0.6,3.5,4.1,6,7.9,5.1l9.5-1.6c3.5-0.6,6-4.1,5.1-7.9l-2.5-12.1l-4.8-25.1l-3.2-15.6
			c0,0,0-16.5-18.7-23.5c0,0-16.5-7-21-9.5c0,0-9.5-2.2-7-11.8l9.5-23.5l14,18.7c0,0,4.8,7,11.8,2.2l44.5-23.5c0,0,6.4-4.8,1-12.4
			c0,0-3.5-6.4-10.5-4.1l-25.7,11.8c0,0-9.5,2.2-11.8-4.8c0,0-7.3-27.6-18.7-30.5c-13-3.2-56.2,0-56.2,0l-25.7,44.8
			C-268,367-272.8,371.4-263.2,376.2z"/>
	</g>
</g>
</svg>
