<?xml version="1.0" encoding="utf-8"?>
<!-- Generator: Adobe Illustrator 19.0.0, SVG Export Plug-In . SVG Version: 6.00 Build 0)  -->
<svg version="1.1" id="圖層_1" xmlns="http://www.w3.org/2000/svg" xmlns:xlink="http://www.w3.org/1999/xlink" x="0px" y="0px"
	 viewBox="0 0 595.3 146.7" style="enable-background:new 0 0 595.3 146.7;" xml:space="preserve">
<style type="text/css">
	.st0{fill:#FFFFFF;}
</style>
<g id="XMLID_270_">
	<polygon id="XMLID_295_" class="st0" points="167.1,120.2 39.4,120.2 39.4,114.1 158.4,114.1 137.3,55.3 103,55.3 103,49.2 
		140,49.2 155.3,33.9 159.6,38.2 143.4,54.4 	"/>
	<path id="XMLID_289_" class="st0" d="M544.7,89.8l3.1,9.1l-5.1,0.6L544.7,89.8z M496.7,115h-45.6c-0.1-5.1,0.5-17.5,7.3-24.9
		c3.6-4,8.6-6,14.9-6c6.3,0,11.4,2,15.2,6C495.5,97.6,496.5,109.9,496.7,115 M555.9,36l-5-1l-7.3,35.3l-12-35.6l-4.9,1.6l14.8,43.9
		l-4.1,19.9l-26.8,3.2l0.6,5.1l25.1-3l-2,9.6h-32.5c-0.1-5.8-1.3-19.6-9.6-28.3c-4.8-5.1-11.2-7.7-19-7.7c-7.8,0-14.1,2.6-18.7,7.7
		c-10.2,11.1-8.5,30.3-8.5,31.1l0.2,2.3h92.2l3.2-15.4l9.9-1.2c0.8-0.1,1.5-0.5,1.9-1.2c0.4-0.7,0.5-1.5,0.3-2.2l-6.9-20.4L555.9,36
		z"/>
	<path id="XMLID_281_" class="st0" d="M364,102.2h16.4v-5.1H364V94h-5.1v11.3h5.1V102.2z M400.8,103.8c-1.9,4.4-3.7,8.4-5,11.2h-52
		c4.1-12.8,14.3-37.3,26-37.3C384.2,77.7,398.5,100.1,400.8,103.8 M425.8,30.1l-3.7-3.5l-17,18.2l3.7,3.5l2-2.2c0,7.6,0,19.5,0,26.7
		c0,5-3.7,15.4-7.6,25.2c-5.3-7.9-18.6-25.5-33.5-25.5c-0.3,0-0.5,0.1-0.7,0.1l-5.5-16.5h7.9V51h-23.2v5.1h9.9l5.9,17.8
		c-15.5,6.8-25,38.9-26.1,43l-0.9,3.3h62.1l0.7-1.5c0.7-1.4,16.3-34,16.3-45.9c0-9.4,0-26.5-0.1-32.2L425.8,30.1z"/>
	<path id="XMLID_271_" class="st0" d="M256.1,81.8L266,93c-6.2,1.2-17.8,3.4-23.9,4v-8.8h-5v8.6c-3.6-1.1-6.3-4.4-6.3-8.3
		c0-4.8,3.9-8.8,8.8-8.8C242.5,79.6,249.3,80.6,256.1,81.8 M238.9,74.6c-3.3,0.2-6.4,1.5-8.7,3.7l-1.7-5.1L238.9,74.6z M229.1,97.2
		c2,2.4,4.8,4.1,8,4.7v2.2h-3v5h11v-5h-3V102c3.7-0.3,9.2-1.2,15.3-2.3c4,6.5,11,10.6,18.7,10.6c1.7,0,3.2-0.2,4.8-0.6l4.9,5.5
		h-73.7C215.5,111.3,221.6,104.5,229.1,97.2 M269.9,97.3l7,7.8c-0.3,0-0.5,0.1-0.8,0.1c-5.3,0-10.2-2.5-13.3-6.5
		c2-0.4,3.9-0.7,5.9-1.1L269.9,97.3z M264.1,83.3c2.7,0.5,5,1,6.6,1.3c4.2,0.9,4.2,3.1,4.2,3.8c0,1.9-1.6,3-3.2,3.5L264.1,83.3z
		 M282.5,104l-7.3-8.2c2.9-1.6,4.7-4.3,4.7-7.4c0-4.4-3-7.6-8.2-8.7c-0.1,0-3.9-0.8-8.8-1.7c3.2-4,8-6.5,13.3-6.5
		c9.3,0,16.9,7.6,16.9,16.9C293,95.4,288.7,101.4,282.5,104 M295.9,50.9c0-6-4.4-9.8-11.4-9.8h-13.6c-0.8,0-1.5,0.3-2,0.9
		c-0.5,0.6-0.7,1.4-0.5,2.1l2.4,10.5c-2.8,2.3-10.1,8.3-19.9,16.6L226.8,68l-8-23.7h9.3v-5h-22.6v5h8l13.2,39.2l0.1,0
		c-0.6,1.5-0.9,3.1-0.9,4.9c0,1.5,0.3,3,0.8,4.3c-8.5,8.3-15.4,16-18.8,19.8c-2,2.2-3.1,3.6-3.1,3.6l-3.4,4.1H297l-11-12.4
		c7.1-3.6,12.1-10.9,12.1-19.5c0-12.1-9.8-21.9-21.9-21.9c-7.4,0-14.3,3.8-18.3,9.9l-2.2-2.5c11.8-9.9,19.6-16.3,19.6-16.3
		c0.7-0.6,1.1-1.6,0.9-2.5l-2.1-9h10.4c2.9,0,6.4,0.8,6.4,4.8c0,3.1-4.7,6.2-6.3,7l2.3,4.5C287.7,61.9,295.9,57.6,295.9,50.9"/>
</g>
</svg>
