<?xml version="1.0" encoding="utf-8"?>
<!-- Generator: Adobe Illustrator 19.0.0, SVG Export Plug-In . SVG Version: 6.00 Build 0)  -->
<svg version="1.1" id="圖層_1" xmlns="http://www.w3.org/2000/svg" xmlns:xlink="http://www.w3.org/1999/xlink" x="0px" y="0px"
	 viewBox="0 0 300 300" style="enable-background:new 0 0 300 300;" xml:space="preserve">
<style type="text/css">
	.st0{fill:#FFFFFF;}
</style>
<path id="XMLID_572_" class="st0" d="M-673,94.1h52.5V77.6H-673v-9.9h-16.5v36.2h16.5V94.1z M-555.1,99.1c-6,14.1-11.8,26.8-16.2,36
	H-738c13.1-41.1,45.8-119.6,83.2-119.6C-608,15.5-562.4,87.2-555.1,99.1 M-474.8-137.2l-12-11.3l-54.6,58.3l12,11.3l6.5-6.9
	c0.1,24.5,0.1,62.4,0.1,85.7c0,16.1-11.8,49.5-24.5,80.7c-16.9-25.3-59.7-81.6-107.4-81.6c-0.8,0-1.6,0.2-2.4,0.3l-17.7-53h25.4
	v-16.5h-74.4v16.5h31.6l19,57c-49.7,21.7-80.2,124.8-83.8,137.8l-2.9,10.4h199l2.2-4.7c2.1-4.4,52.3-109,52.3-147
	c0-30.2-0.1-85-0.2-103.2L-474.8-137.2z"/>
<path id="XMLID_597_" class="st0" d="M-644.1,488l8.4,24.7l-13.8,1.7L-644.1,488z M-775.3,556.8h-124.3c-0.2-14,1.4-47.7,19.8-67.9
	c9.9-10.8,23.6-16.3,40.7-16.3c17.2,0,31.1,5.5,41.5,16.5C-778.5,509.3-775.6,542.7-775.3,556.8 M-613.7,341.2l-13.7-2.8l-19.9,96.2
	l-32.8-97l-13.3,4.5l40.5,119.7l-11.3,54.4l-73.1,8.8l1.7,13.9l68.4-8.2l-5.4,26.2h-88.6c-0.3-15.9-3.5-53.4-26.2-77.3
	c-13.1-13.9-30.5-20.9-51.7-20.9c-21.2,0-38.4,7-51.1,20.9c-27.8,30.4-23.3,82.7-23.1,84.9l0.6,6.4h251.5l8.7-42l27.1-3.2
	c2.1-0.3,4-1.4,5.1-3.2c1.1-1.8,1.4-4,0.7-6l-18.8-55.5L-613.7,341.2z"/>
<g id="XMLID_870_">
	<g id="XMLID_871_">
		<path id="XMLID_872_" class="st0" d="M-385.3,519.5c13,0,23.5-10.5,23.5-23.5c0-13-10.5-23.5-23.5-23.5s-23.5,10.5-23.5,23.5
			C-408.8,508.7-398.3,519.5-385.3,519.5z M-371,751.7h85.8v-15.9H-371V751.7z M-223.3,514.7c-3.2-2.9-7.9-2.5-10.8,0.6l-28,30.2h-1
			l0,0l-45.7,14.3c-3.8,1.3-6,5.1-4.8,8.9c1.3,3.8,5.1,6,8.9,4.8l34.9-11.1l-52.4,137.9l-185.5,19.4c-8.3,0.6-14.3,7.9-13.3,16.5
			c0.6,8.3,7.9,14.3,16.2,13.7l212.5-22.2c8.3-0.6,14.3-8.3,13.3-16.5c-0.6-8.3-7.9-14.3-16.2-13.7l-11.1,1.3l53.7-141.7l0,0
			l21.3-6.7c3.8-1.3,6-5.4,4.8-9.2c-1-2.9-3.5-4.8-6.4-5.1l9.5-10.2C-220.1,522.7-220.5,517.6-223.3,514.7z M-514.6,654.5l22.2,12.4
			l0,0l16.5,8.9c2.5,1.9,12.1,7.9,18.1,1.9l16.5-33c0,0-11.8,0-23.5-14.3c0,0,0,7-4.8,16.5c0,0-1.3,2.9-6.4,1.9c0,0-0.3,0.6-7.3-3.2
			l-20-11.1c-3.2-1.9-7.3-0.6-9.2,2.5l-5.1,8.3C-519,648.5-518.1,652.6-514.6,654.5z M-479,578.3c0,0,9.5,7.3,11.8,0.3l18.7-30.2
			h16.5c0,0,4.8-0.3,0,9.2l-21,47c0,0-14,18.7,28.3,28.3c0,0,11.8,2.2,25.7,7c0,0,6,1.9,10.2,10.8l2.9,14.9c0,0.3,0,1,0,1.3
			l5.1,24.8c0.6,3.5,4.1,6,7.9,5.1l9.5-1.6c3.5-0.6,6-4.1,5.1-7.9l-2.5-12.1l-4.8-25.1l-3.2-15.6c0,0,0-16.5-18.7-23.5
			c0,0-16.5-7-21-9.5c0,0-9.5-2.2-7-11.8l9.5-23.5l14,18.7c0,0,4.8,7,11.8,2.2l44.5-23.5c0,0,6.4-4.8,1-12.4c0,0-3.5-6.4-10.5-4.1
			l-25.7,11.8c0,0-9.5,2.2-11.8-4.8c0,0-7.3-27.6-18.7-30.5c-13-3.2-56.2,0-56.2,0l-25.7,44.8C-483.8,569.1-488.6,573.5-479,578.3z"
			/>
	</g>
</g>
<g id="XMLID_322_">
	<g id="XMLID_325_">
		<path id="XMLID_1441_" class="st0" d="M222.3,64.7c17.9,0,32.7-14.5,32.7-32.4S240.6,0,222.3,0c-17.9,0-32.7,14.5-32.7,32.4
			C190,50.3,204.4,64.7,222.3,64.7z M23.6,287.8L17.5,300h276.8l-6.9-12.2h-29.7l-22.8-45.3c8-4.9,13.3-13.7,13.3-24
			c0-15.6-12.6-28.2-28.2-28.2l-9.1,0.4c-1.9-2.7-3.4-5.7-5.7-11.8l-4.2-12.6c-3.8-13.3-6.1-24.4-6.9-31.2c0-0.8-0.4-1.5-0.4-2.3
			l3.4-4.9l27.4,6.1c1.1,0.4,2.3,0.4,3.4,0.4c7.2,0,14.1-4.9,15.6-12.6c0.4-1.9,0.4-3.4,0.4-5.3c4.2-1.9,8-4.6,11-8.4
			c0.8-0.8,1.5-1.5,1.9-2.3c2.3-2.7,1.5-6.9-1.5-9.1c-2.7-1.9-6.5-1.5-8.8,1.1c0,0-0.4,0-0.4,0.4c-2.7,3.4-5.7,5.7-9.5,7.2
			c-1.5-1.1-3.8-1.9-5.7-2.7l-50.3-11V41.9c0-15.6-9.9-27-27-29.3c-3-0.4-6.1-0.8-8.8-0.8c-1.5,0-2.7,0-4.2-0.4
			c-9.1-0.4-17.9,0-25.9,1.1c-14.5,1.9-27.4,6.1-38.1,11c-11.4,5.3-20.6,11.8-27.8,18.3c-4.6,3.8-8,7.6-11,10.7
			c-5.7,6.5-8.8,11-9.1,11.8c-0.4,0.4-2.7,4.6-3.4,10.3c-0.4,3.4-0.4,7.2,0.8,11c0.8,2.3,1.9,4.9,3.4,7.6c2.3,3.4,4.9,6.5,9.1,9.9
			L22.1,102h-0.4c-8.8-0.4-16,4.6-16,11.4s7.2,11.4,16,10.3l10.3-1.1l5.3,8.4l7.6,12.6l8.4,13.7l27,44.5
			c-11,7.6-18.3,20.2-18.3,34.6c0,17.1,10.3,31.6,24.7,38.1l-7.6,12.9H23.6V287.8z M220.4,246.7L220.4,246.7l21.3,41.1h-76.5
			l-5.7-24.4L220.4,246.7z M183.5,147.3c1.1,6.9,3.4,15.2,6.1,24.4l4.6,12.9c1.1,2.7,1.9,4.9,2.7,6.9l-46.1,1.5L183.5,147.3z
			 M177.4,134l-34.3,47.6l-8.8,12.6H134l3.8-51.8c0-0.8,0-1.9,0-2.7l8.4-1.1L177.4,134z M146.2,72.3l3,32
			c1.1,8.8,5.3,14.1,12.6,15.6l9.1,1.9l-18.3,2.7l-11.4,1.5l-9.5,1.1c-0.4-0.4-0.8-0.8-1.5-1.1L88.3,85.7
			C96.7,76.9,119.5,68.9,146.2,72.3z M52.2,129.8l-4.6-7.2l-0.8-1.1l14.1-1.5l10.3,8l8.4,6.5l-14.1,1.9l-8.8,1.1L52.2,129.8z
			 M86.4,186.2L64,149.2l15.6-2.3l14.5-1.9l5.3,4.2l-3.4,46.4c-1.1,0.4-2.3,0.4-3.4,0.8L86.4,186.2z"/>
	</g>
</g>
</svg>
