<?xml version="1.0" encoding="utf-8"?>
<!-- Generator: Adobe Illustrator 19.0.0, SVG Export Plug-In . SVG Version: 6.00 Build 0)  -->
<svg version="1.1" id="圖層_1" xmlns="http://www.w3.org/2000/svg" xmlns:xlink="http://www.w3.org/1999/xlink" x="0px" y="0px"
	 viewBox="0 0 326 326" style="enable-background:new 0 0 326 326;" xml:space="preserve">
<style type="text/css">
	.st0{fill:#FFFFFF;}
	.st1{fill:#D9340A;}
	.st2{fill-rule:evenodd;clip-rule:evenodd;}
</style>
<g id="XMLID_28_">
	<g id="XMLID_37_">
		<path id="XMLID_39_" class="st0" d="M8.1,23.9c0-8.8,7.1-15.9,15.9-15.9H302c8.8,0,15.9,7.1,15.9,15.9v278.1
			c0,8.8-7.1,15.9-15.9,15.9H23.9c-8.8,0-15.9-7.1-15.9-15.9V23.9L8.1,23.9z"/>
		<path id="XMLID_38_" class="st0" d="M163,163"/>
	</g>
	<g id="XMLID_29_">
		<g id="XMLID_30_">
			<polygon id="XMLID_36_" class="st1" points="38.9,214.5 263.7,214.5 259.1,233.8 34.4,233.8 			"/>
			<path id="XMLID_31_" class="st2" d="M91.2,153.4h17.5c5.4,0,16.1,0.6,13.5,9.4c-3.1,10.4-13.8,10.2-17.8,10.2H86.6L91.2,153.4z
				 M99.8,116.6h15.9c5.8,0,13.6,1,11.6,8.7c-1.8,6.7-8.5,9-15,9H95.7L99.8,116.6z M67.7,92.2l57.5,0c61,0,35.1,45.8,18.9,49
				c0,0-1,0.7-0.3,0.8c23.7,3.1,23.1,55.3-40.5,55.3H43.1L67.7,92.2z M255.1,93.2H292l-24,102.5H231l9.3-39.6h-35.4l-9.3,39.6h-36.9
				l24-102.5h36.9l-8.1,34.6h35.4L255.1,93.2z"/>
		</g>
	</g>
</g>
</svg>
