<?xml version="1.0" encoding="utf-8"?>
<!-- Generator: Adobe Illustrator 19.0.0, SVG Export Plug-In . SVG Version: 6.00 Build 0)  -->
<svg version="1.1" id="圖層_1" xmlns="http://www.w3.org/2000/svg" xmlns:xlink="http://www.w3.org/1999/xlink" x="0px" y="0px"
	 viewBox="18 398.9 632.3 45" style="enable-background:new 18 398.9 632.3 45;" xml:space="preserve">
<style type="text/css">
	.st0{fill:#FFFFFF;}
	.st1{fill:#D9340A;}
</style>
<g id="XMLID_93_">
	<path id="XMLID_150_" class="st0" d="M39.3,430l4.5-18.5h-8.1l0.6-2.4h19.4l-0.6,2.4h-8L42.5,430H39.3z"/>
	<path id="XMLID_148_" class="st0" d="M57.1,430l5.1-20.9h3l-2,8c1.1-0.9,2.2-1.6,3.2-2s2-0.6,3-0.6c1.5,0,2.6,0.3,3.4,1
		c0.8,0.7,1.2,1.5,1.2,2.6c0,0.5-0.2,1.5-0.5,2.9l-2.2,9h-3l2.3-9.2c0.3-1.3,0.5-2.2,0.5-2.5c0-0.5-0.2-0.9-0.6-1.2
		c-0.4-0.3-1-0.5-1.8-0.5c-1.1,0-2.2,0.2-3.1,0.7c-1,0.5-1.8,1.2-2.3,2c-0.6,0.9-1.1,2.2-1.6,4.1l-1.6,6.5L57.1,430L57.1,430z"/>
	<path id="XMLID_145_" class="st0" d="M92.7,424.8l3,0.3c-0.4,1.2-1.4,2.4-2.9,3.6c-1.5,1.1-3.4,1.7-5.5,1.7c-1.3,0-2.5-0.3-3.6-0.8
		s-1.9-1.3-2.5-2.2c-0.6-1-0.9-2.1-0.9-3.4c0-1.6,0.4-3.3,1.4-4.8c0.9-1.6,2.1-2.7,3.5-3.4c1.4-0.8,3-1.2,4.6-1.2
		c2.1,0,3.8,0.6,5.1,1.7c1.3,1.1,1.9,2.7,1.9,4.6c0,0.7-0.1,1.5-0.2,2.3H83.5c0,0.3-0.1,0.6-0.1,0.8c0,1.4,0.4,2.5,1.1,3.2
		c0.8,0.7,1.7,1.1,2.8,1.1c1,0,2.1-0.3,3.1-0.9C91.4,426.7,92.2,425.9,92.7,424.8z M83.9,421.1h10c0-0.3,0-0.5,0-0.6
		c0-1.3-0.4-2.3-1.1-3c-0.8-0.7-1.7-1-2.9-1c-1.3,0-2.5,0.4-3.5,1.1C85.2,418.4,84.4,419.5,83.9,421.1z"/>
	<path id="XMLID_143_" class="st0" d="M115.7,429.9l5.1-20.9h3.2l4.2,7.9c1.3,2.4,2.3,4.4,3,6c0.4,1,0.9,2.2,1.5,3.8
		c0.3-1.7,0.7-3.6,1.1-5.4l3-12.3h3.2l-5.1,20.9h-3.2l-6.2-12c-1.1-2.1-1.9-4-2.5-5.6c-0.2,1.4-0.5,3-1,5l-3.1,12.6H115.7z"/>
	<path id="XMLID_140_" class="st0" d="M144,424.2c0-3,1-5.4,3.1-7.4c1.7-1.6,3.9-2.4,6.6-2.4c2.2,0,3.9,0.6,5.2,1.7s2,2.7,2,4.6
		c0,1.7-0.4,3.4-1.2,4.9s-2,2.6-3.5,3.4c-1.5,0.8-3.1,1.2-4.8,1.2c-1.4,0-2.6-0.3-3.8-0.8c-1.1-0.5-2-1.2-2.6-2.1
		C144.3,426.5,144,425.4,144,424.2z M147,423.9c0,1.4,0.4,2.5,1.2,3.2c0.8,0.7,1.8,1.1,3.1,1.1c0.6,0,1.3-0.1,1.9-0.3
		c0.6-0.2,1.2-0.5,1.8-1c0.5-0.5,1-1,1.4-1.6s0.7-1.2,0.9-1.9c0.3-0.9,0.5-1.8,0.5-2.7c0-1.4-0.4-2.4-1.2-3.2
		c-0.8-0.8-1.8-1.1-3.1-1.1c-0.9,0-1.8,0.2-2.6,0.6c-0.8,0.4-1.5,0.9-2.1,1.7c-0.6,0.7-1.1,1.6-1.4,2.6
		C147.1,422.3,147,423.2,147,423.9z"/>
	<path id="XMLID_139_" class="st1" d="M183.3,432.1l3.5-14.1c-1.1,0.3-2.2,0.7-3.4,0.9l0,0l-3.4,0.8l0.8-3.4l0.8-3.5l1.1-0.4
		c1.4-0.5,2.8-1.1,4.1-1.9l0,0c1.4-0.8,2.4-1.4,3-1.9l0,0c0.3-0.3,0.6-0.6,0.9-1l0,0l0.6-0.9h1.1h4.5l-6.2,25.3H189l0,0h-3.1"/>
	<path id="XMLID_136_" class="st0" d="M214.4,429.9l3.7-15.2h3l-3.7,15.2H214.4z M218.8,411.9l0.7-2.9h3l-0.7,2.9H218.8z"/>
	<path id="XMLID_134_" class="st0" d="M225.6,429.9l3.7-15.2h2.8l-0.7,2.6c1.2-1,2.3-1.8,3.4-2.3c1-0.5,2.1-0.7,3.2-0.7
		c1.4,0,2.6,0.3,3.4,1c0.8,0.7,1.2,1.6,1.2,2.7c0,0.6-0.1,1.4-0.4,2.7l-2.3,9.2h-3l2.4-9.6c0.2-1,0.4-1.6,0.4-2.1s-0.2-0.9-0.6-1.2
		c-0.4-0.3-1-0.5-1.8-0.5c-1.6,0-3,0.5-4.2,1.4c-1.2,0.9-2.1,2.6-2.7,4.9l-1.7,7.1C228.7,429.9,225.6,429.9,225.6,429.9z"/>
	<path id="XMLID_132_" class="st0" d="M261.5,429.9l5.2-20.9h17.8l-0.6,2.4h-14.5l-1.6,6.5h14.1l-0.6,2.4h-14.1l-1.8,7.3h15.5
		l-0.6,2.4L261.5,429.9z"/>
	<path id="XMLID_130_" class="st0" d="M299.6,427.2c-2.1,2-4.3,3.1-6.6,3.1c-1.4,0-2.5-0.3-3.3-1c-0.8-0.7-1.3-1.5-1.3-2.5
		c0-0.6,0.2-1.7,0.6-3.3l2.2-8.7h3l-2.4,9.7c-0.2,0.8-0.3,1.4-0.3,1.9c0,0.6,0.2,1,0.6,1.3s1,0.5,1.8,0.5s1.7-0.2,2.5-0.5
		c0.8-0.4,1.5-0.8,2.1-1.4s1.1-1.3,1.4-2.1c0.3-0.5,0.5-1.5,0.9-2.7l1.6-6.5h3l-3.6,14.9H299L299.6,427.2z"/>
	<path id="XMLID_128_" class="st0" d="M310,429.9l3.7-15.1h2.7l-0.8,3.1c0.9-1.2,1.8-2,2.7-2.6c0.9-0.5,1.8-0.8,2.7-0.8
		c0.6,0,1.3,0.2,2.2,0.6l-1.2,2.4c-0.5-0.3-1.1-0.5-1.7-0.5c-1,0-2.1,0.5-3.3,1.5c-1.1,1-2,2.8-2.6,5.4l-1.5,6.1L310,429.9
		L310,429.9z"/>
	<path id="XMLID_125_" class="st0" d="M325.4,424.1c0-2.9,1-5.4,3.1-7.3c1.7-1.6,3.9-2.4,6.6-2.4c2.2,0,3.9,0.6,5.2,1.7
		c1.3,1.1,2,2.7,2,4.6c0,1.8-0.4,3.4-1.2,4.9c-0.8,1.5-2,2.7-3.5,3.5c-1.5,0.8-3.1,1.2-4.8,1.2c-1.4,0-2.6-0.3-3.8-0.8
		c-1.1-0.5-2-1.2-2.6-2.2C325.7,426.4,325.4,425.3,325.4,424.1z M328.5,423.9c0,1.4,0.4,2.5,1.2,3.3c0.8,0.7,1.8,1.1,3.1,1.1
		c0.7,0,1.3-0.1,1.9-0.3c0.6-0.2,1.2-0.6,1.8-1c0.6-0.4,1-1,1.4-1.6c0.4-0.6,0.7-1.2,0.9-1.9c0.3-0.9,0.5-1.8,0.5-2.7
		c0-1.4-0.4-2.4-1.2-3.2c-0.8-0.8-1.8-1.1-3.1-1.1c-0.9,0-1.8,0.2-2.6,0.5c-0.8,0.4-1.5,1-2.1,1.7s-1.1,1.6-1.4,2.6
		C328.6,422.2,328.5,423.1,328.5,423.9z"/>
	<path id="XMLID_122_" class="st0" d="M346,435.7l5.1-21h2.8l-0.5,2.1c1-0.9,2-1.6,2.8-1.9c0.8-0.4,1.7-0.5,2.6-0.5
		c1.7,0,3.1,0.5,4.2,1.6c1.1,1,1.7,2.5,1.7,4.5c0,1.6-0.3,3-0.9,4.3c-0.6,1.3-1.4,2.3-2.3,3.1c-0.9,0.8-1.8,1.4-2.7,1.7
		c-0.9,0.4-1.8,0.5-2.8,0.5c-2.1,0-3.8-0.9-5-2.8l-2,8.3h-3V435.7z M352,423.7c0,1.1,0.1,1.9,0.3,2.3c0.3,0.6,0.7,1.1,1.4,1.5
		c0.6,0.4,1.4,0.6,2.2,0.6c1.7,0,3.2-0.8,4.2-2.5c1.1-1.7,1.6-3.4,1.6-5.1c0-1.3-0.3-2.3-1.1-3c-0.7-0.7-1.6-1-2.7-1
		c-0.8,0-1.5,0.2-2.2,0.5c-0.7,0.3-1.3,0.9-1.8,1.6c-0.6,0.7-1,1.6-1.4,2.5C352.1,422.1,352,422.9,352,423.7z"/>
	<path id="XMLID_119_" class="st0" d="M383.1,424.7l2.9,0.2c-0.4,1.3-1.4,2.4-2.9,3.6c-1.5,1.1-3.3,1.7-5.5,1.7
		c-1.3,0-2.5-0.2-3.6-0.8c-1.1-0.5-1.9-1.3-2.5-2.3s-0.9-2.1-0.9-3.4c0-1.6,0.4-3.2,1.4-4.8c0.9-1.6,2-2.7,3.5-3.5
		c1.4-0.7,3-1.1,4.6-1.1c2.1,0,3.8,0.6,5.1,1.7c1.3,1.1,1.9,2.7,1.9,4.6c0,0.8-0.1,1.5-0.2,2.3h-13.1c-0.1,0.3-0.1,0.6-0.1,0.8
		c0,1.4,0.4,2.5,1.1,3.2c0.8,0.7,1.7,1.1,2.8,1.1c1,0,2.1-0.3,3.1-0.9C381.7,426.6,382.5,425.8,383.1,424.7z M374.3,421h10
		c0-0.3,0-0.5,0-0.6c0-1.3-0.4-2.3-1.1-3c-0.8-0.7-1.7-1-2.9-1c-1.3,0-2.5,0.4-3.5,1.1C375.6,418.3,374.8,419.4,374.3,421z"/>
	<path id="XMLID_117_" class="st0" d="M407.6,436v-27.4h2.6V436H407.6z"/>
	<path id="XMLID_115_" class="st0" d="M432.2,423.1l3.2-0.3v0.7c0,0.8,0.2,1.5,0.7,2.2c0.4,0.7,1.2,1.2,2.2,1.6s2.2,0.5,3.6,0.5
		c2,0,3.5-0.4,4.5-1.1s1.5-1.6,1.5-2.5c0-0.7-0.3-1.3-0.8-1.8c-0.6-0.5-2.1-1.2-4.6-2.2c-1.9-0.7-3.2-1.3-4-1.7
		c-1.1-0.6-1.9-1.3-2.5-2c-0.5-0.7-0.8-1.6-0.8-2.5c0-1.1,0.4-2,1-2.9c0.7-0.9,1.7-1.5,3.1-2c1.3-0.4,2.8-0.7,4.5-0.7
		c2,0,3.7,0.3,5.1,0.9s2.4,1.3,3,2.3s0.9,1.9,0.9,2.7c0,0.1,0,0.2,0,0.4l-3.2,0.2c0-0.6-0.1-1.1-0.2-1.4c-0.2-0.6-0.6-1.1-1-1.5
		c-0.5-0.4-1.1-0.7-1.9-1c-0.8-0.2-1.8-0.3-2.8-0.3c-1.8,0-3.2,0.3-4.2,1c-0.8,0.5-1.1,1.2-1.1,2.1c0,0.5,0.2,1,0.5,1.4
		s0.9,0.8,1.7,1.2c0.6,0.3,2,0.8,4.1,1.7c1.8,0.7,3,1.2,3.7,1.6c0.9,0.5,1.6,1.1,2.1,1.8c0.5,0.7,0.7,1.5,0.7,2.4
		c0,1.1-0.4,2.2-1.2,3.1c-0.8,1-1.9,1.7-3.4,2.2c-1.4,0.5-3,0.8-4.9,0.8c-2.8,0-5.1-0.5-6.8-1.5
		C433.1,427.6,432.2,425.8,432.2,423.1z"/>
	<path id="XMLID_112_" class="st0" d="M457.1,429.9l3.7-15.2h3.1l-3.7,15.2H457.1z M461.5,411.9l0.7-2.9h3l-0.7,2.9H461.5z"/>
	<path id="XMLID_110_" class="st0" d="M468.3,429.9l3.7-15.2h2.8l-0.7,2.6c1.2-1,2.3-1.8,3.4-2.3c1-0.5,2.1-0.7,3.2-0.7
		c1.4,0,2.6,0.3,3.4,1c0.8,0.7,1.2,1.6,1.2,2.7c0,0.6-0.1,1.4-0.4,2.6l-2.3,9.2h-3l2.4-9.6c0.2-0.9,0.3-1.6,0.3-2.1
		s-0.2-0.9-0.6-1.2c-0.4-0.3-1-0.5-1.8-0.5c-1.6,0-2.9,0.5-4.2,1.4c-1.2,1-2.1,2.6-2.7,4.9l-1.7,7.1h-3V429.9z"/>
	<path id="XMLID_108_" class="st0" d="M503.2,424.3l3,0.3c-0.8,1.9-1.8,3.3-3.2,4.2c-1.4,0.9-3,1.4-4.8,1.4c-1.9,0-3.5-0.5-4.7-1.6
		s-1.8-2.6-1.8-4.5c0-1.6,0.4-3.3,1.2-4.9c0.8-1.6,1.9-2.8,3.3-3.6s3.1-1.3,4.9-1.3c1.9,0,3.4,0.4,4.6,1.4c1.1,0.9,1.7,2.1,1.7,3.6
		l-3,0.2c0-1-0.3-1.7-1-2.3c-0.6-0.5-1.5-0.8-2.5-0.8c-1.2,0-2.3,0.3-3.2,1c-0.9,0.7-1.6,1.6-2.1,3c-0.5,1.3-0.8,2.6-0.8,3.8
		c0,1.3,0.3,2.3,1,2.9s1.5,0.9,2.5,0.9s1.9-0.3,2.8-0.9C501.9,426.6,502.6,425.6,503.2,424.3z"/>
	<path id="XMLID_105_" class="st0" d="M524.6,424.7l3,0.3c-0.4,1.2-1.4,2.4-2.9,3.6c-1.5,1.1-3.3,1.7-5.5,1.7
		c-1.3,0-2.5-0.2-3.6-0.8c-1.1-0.5-1.9-1.3-2.5-2.3c-0.6-1-0.9-2.1-0.9-3.4c0-1.7,0.4-3.3,1.4-4.8c0.9-1.6,2.1-2.7,3.5-3.5
		c1.4-0.8,3-1.1,4.6-1.1c2.1,0,3.8,0.6,5.1,1.7c1.3,1.1,1.9,2.6,1.9,4.6c0,0.7-0.1,1.5-0.2,2.3h-13.1c0,0.3-0.1,0.6-0.1,0.8
		c0,1.4,0.4,2.5,1.1,3.2c0.8,0.7,1.7,1.1,2.8,1.1c1,0,2-0.3,3.1-0.9C523.2,426.6,524,425.8,524.6,424.7z M515.8,420.9h10
		c0-0.3,0-0.5,0-0.6c0-1.3-0.4-2.3-1.1-3c-0.8-0.7-1.7-1-2.9-1c-1.3,0-2.5,0.4-3.6,1.1C517.1,418.3,516.3,419.4,515.8,420.9z"/>
	<path id="XMLID_103_" class="st0" d="M554.1,429.8L558,414c-1.7,1.1-4,2-7.1,2.7l0.6-2.3c1.5-0.5,3-1.2,4.5-2
		c1.5-0.8,2.6-1.6,3.3-2.2c0.4-0.4,0.9-0.8,1.3-1.4h1.8l-5.2,21H554.1z"/>
	<path id="XMLID_100_" class="st0" d="M570.7,425l2.9-0.2c0.2,1.2,0.6,2,1.2,2.5c0.6,0.5,1.3,0.7,2.1,0.7c1.2,0,2.2-0.4,3.2-1.3
		c1.5-1.3,2.5-3,3.2-5.4c-1,0.6-1.9,1.1-2.7,1.4s-1.6,0.4-2.4,0.4c-1.5,0-2.9-0.5-4-1.3c-1.6-1.1-2.4-2.7-2.4-4.8
		c0-2.4,0.9-4.4,2.7-6.1c1.5-1.5,3.5-2.2,5.7-2.2c2,0,3.7,0.6,5.1,1.9c1.3,1.3,2,3.1,2,5.4c0,2.3-0.4,4.5-1.4,6.7
		c-1,2.6-2.5,4.5-4.3,5.8c-1.5,1-3.1,1.5-5,1.5c-1.7,0-3.1-0.4-4.2-1.3C571.5,427.9,570.9,426.7,570.7,425z M574.8,416.8
		c0,1.3,0.4,2.4,1.2,3.1c0.8,0.8,1.8,1.2,2.9,1.2c0.8,0,1.7-0.2,2.5-0.7s1.5-1.2,2.1-2.2s0.9-2,0.9-3c0-0.8-0.2-1.5-0.6-2.2
		c-0.4-0.7-0.9-1.2-1.6-1.5c-0.7-0.3-1.4-0.5-2.1-0.5c-0.7,0-1.3,0.2-2,0.4c-0.7,0.3-1.2,0.8-1.8,1.3c-0.6,0.6-1,1.3-1.2,2
		C574.9,415.5,574.8,416.2,574.8,416.8z"/>
	<path id="XMLID_97_" class="st0" d="M593.4,422.9c0-1.8,0.3-3.6,0.9-5.4c0.6-1.8,1.3-3.3,2.1-4.4s1.6-2,2.4-2.6
		c0.8-0.6,1.6-1.1,2.4-1.4c0.8-0.3,1.7-0.4,2.6-0.4c1.9,0,3.4,0.6,4.7,1.8c1.3,1.2,1.9,2.9,1.9,5.1c0,2.3-0.4,4.6-1.3,6.9
		c-1,2.7-2.5,4.7-4.3,6.1c-1.4,1-3,1.5-4.8,1.5c-1.9,0-3.4-0.6-4.7-1.9C594,427.1,593.4,425.3,593.4,422.9z M596.4,423.6
		c0,1.3,0.2,2.3,0.7,3c0.7,1,1.7,1.5,3,1.5c1.2,0,2.2-0.5,3.2-1.4c1.4-1.3,2.4-3.1,3.1-5.6c0.7-2.5,1-4.5,1-6s-0.3-2.6-1-3.3
		c-0.7-0.7-1.6-1-2.7-1c-0.8,0-1.6,0.2-2.2,0.5c-0.7,0.4-1.4,1-2,1.8c-0.9,1.2-1.7,3-2.4,5.4C596.6,420.7,596.4,422.4,596.4,423.6z"
		/>
	<path id="XMLID_94_" class="st0" d="M615.9,425l2.8-0.2c0.2,1.2,0.6,2,1.2,2.5c0.6,0.5,1.3,0.7,2.1,0.7c1.1,0,2.2-0.4,3.2-1.3
		c1.5-1.2,2.5-3.1,3.2-5.4c-1,0.7-1.9,1.1-2.7,1.4s-1.6,0.4-2.4,0.4c-1.5,0-2.8-0.4-4-1.3c-1.6-1.1-2.4-2.7-2.4-4.8
		c0-2.4,0.9-4.4,2.7-6.1c1.5-1.4,3.5-2.2,5.7-2.2c2,0,3.7,0.6,5.1,1.9c1.3,1.3,2,3.1,2,5.4c0,2.3-0.5,4.5-1.4,6.7
		c-1.1,2.6-2.5,4.5-4.3,5.8c-1.5,1-3.1,1.5-5,1.5c-1.7,0-3.1-0.4-4.2-1.3C616.6,427.9,616,426.6,615.9,425z M619.9,416.7
		c0,1.3,0.4,2.4,1.2,3.1c0.8,0.8,1.8,1.2,2.9,1.2c0.9,0,1.7-0.3,2.5-0.7c0.8-0.5,1.6-1.2,2.1-2.2c0.6-1,0.9-2,0.9-3
		c0-0.8-0.2-1.5-0.6-2.2c-0.4-0.7-0.9-1.2-1.6-1.5c-0.7-0.4-1.3-0.5-2-0.5s-1.3,0.2-2,0.5c-0.7,0.3-1.3,0.7-1.8,1.3s-1,1.3-1.2,2
		C620,415.5,619.9,416.2,619.9,416.7z"/>
</g>
</svg>
