<?xml version="1.0" encoding="utf-8"?>
<!-- Generator: Adobe Illustrator 19.0.0, SVG Export Plug-In . SVG Version: 6.00 Build 0)  -->
<svg version="1.1" id="圖層_1" xmlns="http://www.w3.org/2000/svg" xmlns:xlink="http://www.w3.org/1999/xlink" x="0px" y="0px"
	 viewBox="0 0 300 300" style="enable-background:new 0 0 300 300;" xml:space="preserve">
<style type="text/css">
	.st0{fill:#FFFFFF;}
</style>
<path id="XMLID_572_" class="st0" d="M94.4,242.5h52.5V226H94.4v-9.9H77.9v36.2h16.5V242.5z M212.3,247.6c-6,14.1-11.8,26.8-16.2,36
	H29.4c13.1-41.1,45.8-119.6,83.2-119.6C159.3,163.9,205,235.6,212.3,247.6 M292.6,11.3L280.5,0l-54.6,58.3l12,11.3l6.5-6.9
	c0.1,24.5,0.1,62.4,0.1,85.7c0,16.1-11.8,49.5-24.5,80.7c-16.9-25.3-59.7-81.6-107.4-81.6c-0.8,0-1.6,0.2-2.4,0.3l-17.7-53h25.4
	V78.3H43.6v16.5h31.6l19,57C44.4,173.5,14,276.6,10.4,289.6L7.4,300h199l2.2-4.7c2.1-4.4,52.3-109,52.3-147c0-30.2-0.1-85-0.2-103.2
	L292.6,11.3z"/>
</svg>
