<?xml version="1.0" encoding="utf-8"?>
<!-- Generator: Adobe Illustrator 19.0.0, SVG Export Plug-In . SVG Version: 6.00 Build 0)  -->
<svg version="1.1" id="圖層_1" xmlns="http://www.w3.org/2000/svg" xmlns:xlink="http://www.w3.org/1999/xlink" x="0px" y="0px"
	 viewBox="0 0 243 303" style="enable-background:new 0 0 243 303;" xml:space="preserve">
<style type="text/css">
	.st0{fill:#E8B942;}
	.st1{fill:#EBE8D2;}
	.st2{fill:none;stroke:#EBE8D2;stroke-width:8.500000e-002;stroke-miterlimit:3.864;}
	.st3{fill:#231815;}
	.st4{fill:none;stroke:#231815;stroke-width:1.13;stroke-miterlimit:3.864;}
	.st5{fill:#FFFFFF;}
	.st6{fill:none;stroke:#231815;stroke-width:0.1;stroke-miterlimit:3.864;}
	.st7{clip-path:url(#XMLID_54_);fill:#FFFFFF;}
	.st8{clip-path:url(#XMLID_54_);fill:#231815;}
</style>
<g id="百年_2_">
	<rect id="XMLID_1245_" x="23.8" y="8.6" class="st0" width="196.6" height="284.5"/>
	<path id="XMLID_1227_" class="st1" d="M23.8,258.2v2.4l196.6-50.4v-6L23.8,258.2z M23.8,248.5v2.5l196.6-65.3v-6.3L23.8,248.5z
		 M23.8,238.4v2.6L220.3,160v-6.6L23.8,238.4z M23.8,227.6v2.8l196.6-97.5v-7.1L23.8,227.6z M23.8,216v3l196.6-115.2v-7.6L23.8,216z
		 M23.8,203.4v3.3L220.3,72.1v-8.4L23.8,203.4z M23.8,189.4v3.6L220.3,37.4v-9.3L23.8,189.4z M66.1,8.6L23.8,80.2v8.2L72.9,8.6H66.1
		z M94.1,8.6L23.8,110.5v6.6L101.5,8.6H94.1z M124.9,8.6L23.8,135.2v5.5L133.1,8.6H124.9z M159.4,8.6L23.8,156v4.7L168.7,8.6H159.4z
		 M198.6,8.6L23.8,173.8v4.1L209.3,8.6H198.6z"/>
	<rect id="XMLID_1226_" x="23.8" y="8.6" class="st2" width="196.6" height="284.5"/>
	<rect id="XMLID_1225_" x="23.8" y="8.6" class="st3" width="196.6" height="50.6"/>
	<rect id="XMLID_1224_" x="23.8" y="8.6" class="st4" width="196.6" height="284.5"/>
	<g id="XMLID_1211_">
		<path id="XMLID_1223_" class="st5" d="M34.6,44.7l24,0l19.1-18.1h2.8h15c0,0,1.3,0,2.2,0c0.8,0.1,1.3,0.1,2,0.2
			c0.8,0.2,1.9,0.5,2,1.3c0.1,1.1-1.8,1.6-2.7,1.8c-2.2,0.7-4.5,0.9-6.8,0.9H76.7l-3.5,3.3H91c1.4,0,5.2,0,6.1,1.1
			c0.7,0.8-0.4,1.4-1.1,1.8c-0.7,0.4-1.3,0.5-2.3,0.8c-1.3,0.3-2.2,0.5-3.8,0.6c-1.9,0.2-3,0.3-4.9,0.2H68.4l-6.3,6l24.3,0
			c3.4,0,5.3-0.1,8.7-0.3c2.2-0.1,3.4-0.2,5.4-0.5c4.4-0.5,8.7-1.1,12.8-2.4c1.1-0.4,1.9-0.6,2.6-0.9l0.3,0.4l-3.6,3.4l24.1,0
			l8.6-8.1l24.4,0l-8.3,8.1h24l24.1-22.9h-24l-8.2,7.8h-24.7l8.2-7.8l-24.1,0l-15.6,14.8c-0.2-0.7-0.3-0.9-0.8-1.4
			c-1.3-1.4-2.5-1.4-4.2-2.3l-0.3-0.1c-0.6-0.2-0.5-0.7,0.1-0.9l1.2-0.3c2.7-0.7,8.2-2.1,9.7-4.3c0.4-0.6,0.5-0.9,0.4-1.4
			c-0.2-0.8-0.6-1.3-2.1-2c-4.2-2-12.1-2.3-16.9-2.3h-49L34.6,44.7z"/>
		<path id="XMLID_1220_" class="st3" d="M88.4,76.2l-0.2,1.3l-0.8,2.7l0.5,3.1l0.1,1.3c-0.9,0.1-1.3,0.6-1.3,1.4l0.3,1l1.1,0.7
			l-0.2,1.8l-0.7,0.5v2.2l0.2,1.3l0,0.2l0,0.1l-0.4,2.7l1,2.6l-0.4,3.1l0.5,3.1l-0.2,0.7l-0.1,0.9l-0.5,0.7l0.6,2v1.4l0.2,2.3
			l-0.3,0.9l-0.1,0.8l-0.9,1.1l-0.1,0.6v0.6l0.7,0.9l0.6,0.9c0,0.2,0.1,0.6,0.1,1.1l-0.1,2.2l-0.2,1.6l0.2,1.9
			c-0.7,0.8-1.8,1.4-3.1,2c-1.3,0.6-2.5,0.9-3.5,0.9c-0.7,0-1.1-0.8-1.1-2.4v-0.1l0.2-2.4l0.9-0.6c-0.4-1-0.6-1.9-0.6-2.7l0.8-1.3
			l-0.6-0.8l0.1-1.4l0.1-2l0.8-1.1l0.4-1.2l-0.1-0.4l-0.7-1.8l0.1-1.1v-0.3l0.3-0.7l1-0.9l0.2-0.3l-0.2-0.8L82,104l0.1-4.1l-0.7-1.3
			c-0.3-0.6-0.4-1.1-0.4-1.5l0.4-7.1l0.5-4l-0.1-1.9c-0.1-1.5-0.3-2.6-0.6-3.4l-4.8,0.1l-0.5-0.8c0-0.8,0.2-1.2,0.5-1.3l4.6-2.3
			l3.4-3.2c0.7-0.8,1.6-1.1,2.7-1.1c0.3,0,0.7,0.1,1.3,0.3l-0.1,1.2v0.3L88.4,76.2z"/>
		<path id="XMLID_1215_" class="st3" d="M150.2,97l-0.2,1.1l-0.4,2.3l0.1,1.4l-0.9,2.1l-0.3,1.1c-1.2,0.2-1.8,0.6-1.8,1.4
			c0,0.5,0.2,1.1,0.5,1.8l0.6,0.3l-0.2,1.5l-1.1,2.7l-1,2.8l-2.8,3.1l-1.1,1.4l-0.8,0.4l-2.1,1.3l-1.8,1l-1.4,1.9l-1.3,0.1l-0.9,0.8
			l-2.6,1.3l-0.8,0.7l-0.4-0.2l-2.4,0.9l-2.6-0.4c-0.5,0-1.1,0.3-1.8,0.9l-4.6-1.1l-0.3-0.4l-0.9,0.2l-0.3-0.3l-0.1,0.3l-1.8-0.5
			l-0.4-0.7l-0.2,0.6c-1.6-0.5-2.9-1.1-3.9-1.7c-0.9-0.6-1.9-1.6-2.9-2.8l-1.1-0.7l-0.3-1.4l-0.3-1l-0.9-0.6l-0.3,0.4l-0.7,0.1
			l-0.7-1.2l-1-1l-0.5-1.2c-0.9-2.2-1.4-3.7-1.6-4.5l-0.5-0.3l-0.1-1.1l-0.5-1l-0.1-1.2l-0.4-1.6l0.4-2.2l-0.3-1.1L99,102l0.6,0.1
			l0.8-0.7l-0.5-1.5l0.2-1l-0.6,0.7l-0.8-1.1c0-0.6,0.1-1.2,0.3-1.7l0.6-2.2l1.2-0.7l1.2-0.9l-0.7-0.4c0-0.8,0.1-1.3,0.3-1.7
			l1.8-3.5l1.5-2.6l1.1-0.9l0.6-0.7l1.1,0.1c0.3-0.6,0.8-1,1.3-1.2l-0.7-0.6c0-0.3,0.4-0.6,1.2-0.9l2.9-2.1c1-1,1.9-1.5,2.6-1.7
			c0.6-0.2,1-0.6,1.2-1.2h0.3l1,0.5l0.9-0.5l4.2-2.7l4.2-0.3l2.2-0.2c0.8,0,1.5,0.2,2.1,0.6l1.6,0.8l1.3,0.1c0,0.6,0,1.1,0.2,1.3
			c0.2,0.2,0.5,0.6,1.1,1l0.6-1.6l0.7,0.3l3.1,0.8l0.5,0.6L140,77l1.6,0.4l0.6,0.9l2.2,1.8c0.3,0.3,0.7,1.1,1.3,2.3
			c0.4,0.9,0.6,1.5,0.6,1.9l-0.2,0.7c0.6,0.5,1.2,1.2,1.6,1.9c0.4,0.7,0.9,2,1.5,3.9l0.3,0.8l-0.7,0.7l-0.7-0.3
			c0.5,0.6,0.9,1.2,1.1,1.8h0.5L150.2,97z M143.9,104.5v-0.3l-0.2-0.7l-0.8-0.5c0.2-1.8,0.3-3.4,0.3-4.7c0-2.6-0.2-4.4-0.5-5.5
			l-1-2.5l-0.3-1l0.7-0.8l-1.2-1.7l-0.5,1c-0.8-0.7-1.3-1.3-1.5-1.7c-0.2-0.4-0.3-1.1-0.4-2l-1.1-0.5l-1,0.4l-0.7-0.2
			c-0.1-0.2-0.5-0.7-1.1-1.5l0.2-0.9l-0.4-0.7l-2-0.6l-0.4-0.7l-1.3-0.6l-1.3-0.9l-1.9,0.3l-2.6-0.5l-1.2-0.1l-1,0
			c-0.9,0-1.7,0.1-2.5,0.2c-0.7,0.2-1.2,0.3-1.4,0.5l-0.7,0.5l-3.3,1.2c-1.1,0.6-2.3,1.8-3.5,3.5l-1.3,1.1l-1.2,2.7l-1.5,1.9
			l-0.5,1.9l-1.2,2.4l-0.5,3.8l-0.6,2.2v1.3l0.1,4.7c0.3,1.9,1,3.6,2.1,5.2l1.9,2.5c0.8,1.1,1.2,1.7,1.2,1.9v0.2l-0.3,1.3l0.2,0.7
			l0.6,0.8l1.1,0.2l0.4-0.6l0.8,0.5l2.8,1.8l1.1,0.2l0.9,0.3l-0.3,0.9l0.5,0.7l0.8,0.3l0.8-0.1l-0.2-0.8c1.4,0.8,2.5,1.3,3.1,1.3
			l2,0.1l2.4,0.4l2.6-1l4-0.6l0.9-0.7l1.8-1.9l1.3-0.7l1.3-2.1l2.1-2l0.9-3l1.2-1.4l-0.1-1.8l0.6-1.1l0.1-0.5l-0.8-1.2l0.6-0.3
			L143.9,104.5z"/>
		<path id="XMLID_1212_" class="st3" d="M207.9,97l-0.2,1.1l-0.4,2.3l0.1,1.4l-0.9,2.1l-0.3,1.1c-1.2,0.2-1.8,0.6-1.8,1.4
			c0,0.5,0.2,1.1,0.5,1.8l0.6,0.3l-0.2,1.5l-1.1,2.7l-1,2.8l-2.8,3.1l-1.1,1.4l-0.8,0.4l-2.1,1.3l-1.8,1l-1.4,1.9l-1.3,0.1l-0.9,0.8
			l-2.6,1.3l-0.8,0.7l-0.4-0.2l-2.4,0.9l-2.6-0.4c-0.5,0-1.1,0.3-1.8,0.9l-4.6-1.1l-0.3-0.4l-0.9,0.2l-0.3-0.3l-0.1,0.3l-1.7-0.5
			l-0.4-0.7l-0.2,0.6c-1.6-0.5-2.9-1.1-3.9-1.7c-0.9-0.6-1.9-1.6-2.9-2.8l-1.1-0.7l-0.3-1.4l-0.3-1l-0.9-0.6l-0.3,0.4l-0.7,0.1
			l-0.7-1.2l-1-1l-0.6-1.2c-0.9-2.2-1.4-3.7-1.6-4.5l-0.5-0.3l-0.1-1.1l-0.5-1l-0.1-1.2l-0.4-1.6l0.4-2.2l-0.2-1.1l0.5-0.8l0.6,0.1
			l0.8-0.7l-0.6-1.5l0.2-1l-0.6,0.7l-0.8-1.1c0-0.6,0.1-1.2,0.3-1.7l0.6-2.2l1.2-0.7l1.2-0.9l-0.7-0.4c0-0.8,0.1-1.3,0.3-1.7
			l1.8-3.5l1.5-2.6l1-0.9l0.6-0.7l1.1,0.1c0.3-0.6,0.8-1,1.3-1.2l-0.7-0.6c0-0.3,0.4-0.6,1.1-0.9l2.9-2.1c1-1,1.9-1.5,2.6-1.7
			c0.6-0.2,1-0.6,1.2-1.2h0.3l1,0.5l0.9-0.5l4.3-2.7l4.2-0.3l2.2-0.2c0.8,0,1.5,0.2,2.1,0.6l1.6,0.8l1.3,0.1c0,0.6,0,1.1,0.2,1.3
			c0.1,0.2,0.5,0.6,1.1,1l0.6-1.6l0.7,0.3l3.1,0.8l0.5,0.6l-0.2,0.8l1.6,0.4l0.6,0.9l2.2,1.8c0.3,0.3,0.7,1.1,1.3,2.3
			c0.4,0.9,0.6,1.5,0.6,1.9l-0.2,0.7c0.7,0.5,1.2,1.2,1.6,1.9c0.4,0.7,0.9,2,1.5,3.9l0.3,0.8l-0.6,0.7l-0.7-0.3
			c0.5,0.6,0.9,1.2,1.1,1.8h0.5L207.9,97z M201.5,104.5v-0.3l-0.2-0.7l-0.8-0.5c0.2-1.8,0.3-3.4,0.3-4.7c0-2.6-0.2-4.4-0.5-5.5
			l-0.9-2.5l-0.3-1l0.7-0.8l-1.1-1.7l-0.5,1c-0.8-0.7-1.3-1.3-1.5-1.7c-0.2-0.4-0.3-1.1-0.4-2l-1.1-0.5l-1,0.4l-0.7-0.2
			c-0.1-0.2-0.5-0.7-1.1-1.5l0.2-0.9l-0.4-0.7l-2-0.6l-0.4-0.7l-1.3-0.6l-1.3-0.9l-1.9,0.3l-2.6-0.5l-1.2-0.1l-1,0
			c-0.9,0-1.7,0.1-2.5,0.2c-0.7,0.2-1.2,0.3-1.4,0.5l-0.7,0.5l-3.3,1.2c-1.1,0.6-2.2,1.8-3.5,3.5l-1.3,1.1l-1.2,2.7l-1.5,1.9
			l-0.5,1.9l-1.2,2.4l-0.5,3.8l-0.6,2.2v1.3l0.1,4.7c0.3,1.9,1,3.6,2.1,5.2l1.9,2.5c0.8,1.1,1.2,1.7,1.2,1.9v0.2l-0.3,1.3l0.2,0.7
			l0.6,0.8l1.1,0.2l0.4-0.6l0.8,0.5l2.9,1.8l1.1,0.2l0.9,0.3l-0.3,0.9l0.5,0.7l0.7,0.3l0.8-0.1l-0.2-0.8c1.4,0.8,2.4,1.3,3.1,1.3
			l2,0.1l2.4,0.4l2.6-1l4-0.6l0.9-0.7l1.8-1.9l1.3-0.7l1.3-2.1l2.1-2l1-3l1.2-1.4l-0.1-1.8l0.6-1.1l0.1-0.5l-0.8-1.2l0.6-0.3
			L201.5,104.5z"/>
	</g>
	<polygon id="XMLID_1210_" class="st3" points="76.9,165.5 81.4,165.5 81.4,154 72.4,138.1 68.7,138.1 68.7,137.6 81,137.6 
		81,138.1 77,138.1 85,152.2 92.5,138.1 88.5,138.1 88.5,137.6 97,137.6 97,138.1 93.1,138.1 85.4,152.7 85.4,165.5 89.8,165.5 
		89.8,166 76.9,166 	"/>
	<g id="XMLID_1208_">
		<path id="XMLID_1209_" class="st3" d="M98.2,165.5h4.4v-27.3h-4.4v-0.6H121v6.9h-0.4c-0.3-1-0.7-1.9-1.1-2.7
			c-0.4-0.8-0.9-1.5-1.4-2c-0.6-0.6-1.2-1-2-1.3c-0.8-0.3-1.7-0.4-2.8-0.4h-6.6v12.4h2.6c0.9,0,1.6-0.1,2.2-0.2
			c0.6-0.2,1.1-0.5,1.6-0.9c0.4-0.5,0.8-1.1,1.1-1.8c0.3-0.8,0.6-1.8,0.9-3h0.4V157H115c-0.2-0.8-0.4-1.5-0.6-2.2
			c-0.2-0.7-0.5-1.4-0.8-1.9c-0.3-0.6-0.8-1-1.4-1.3c-0.6-0.3-1.4-0.5-2.3-0.5h-3.2v14.4h7.6c1.5,0,2.7-0.3,3.6-0.9
			c1-0.6,1.8-1.4,2.4-2.2c0.6-0.9,1.1-1.8,1.4-2.7c0.3-0.9,0.5-1.7,0.6-2.3h0.4v8.7H98.2V165.5z"/>
	</g>
	<path id="XMLID_1190_" class="st3" d="M138,142.2l-4.4,11.6h8.8L138,142.2z M125,165.5h3.5l10.8-28.6h1l10.9,28.6h3.5v0.6h-12.3
		v-0.6h4.4l-4.2-11.1h-9.3l-4.2,11.1h4.4v0.6H125V165.5z"/>
	<g id="XMLID_766_">
		<path id="XMLID_819_" class="st3" d="M164.3,150.5h3.7c0.7,0,1.4-0.1,2.1-0.3c0.6-0.2,1.1-0.5,1.5-1c0.5-0.5,0.8-1.1,1-1.9
			c0.2-0.8,0.4-1.8,0.4-3c0-1.4-0.2-2.5-0.6-3.3c-0.3-0.9-0.8-1.5-1.4-1.9c-0.5-0.4-1.2-0.7-1.9-0.8c-0.7-0.1-1.4-0.2-2.1-0.2
			l-1.5,0l-1.2,0.1V150.5z M155.9,165.5h4.4v-27.3h-4.4v-0.6h7.6h1l0.9-0.1h1l0.9,0c1.6,0,3,0.1,4.2,0.3c1.2,0.2,2.3,0.6,3.4,1.5
			c0.9,0.7,1.6,1.5,2,2.4c0.4,0.9,0.6,1.7,0.6,2.6c0,0.4-0.1,0.9-0.2,1.6c-0.1,0.6-0.5,1.3-1,1.9c-0.5,0.6-1.2,1.2-2.1,1.8
			c-0.9,0.5-2.2,0.9-3.7,1.1v0.1c0.4,0.1,1,0.2,1.7,0.3c0.8,0.1,1.5,0.4,2.2,0.7c0.8,0.3,1.5,0.8,2.1,1.4c0.6,0.6,1.1,1.3,1.4,2.2
			c0.2,0.5,0.3,1.1,0.3,1.8c0.1,0.7,0.1,1.4,0.2,2.1c0.1,0.7,0.1,1.4,0.1,2.1c0.1,0.7,0.1,1.2,0.2,1.7c0.2,0.7,0.4,1.3,0.8,1.8
			c0.3,0.6,0.9,0.9,1.7,0.9l1.1-0.2l1-0.7l0.4,0.5l-0.5,0.4l-0.6,0.3l-1,0.2c-0.4,0.1-0.8,0.1-1.4,0.1c-1,0-2-0.1-2.7-0.4
			c-0.7-0.3-1.2-0.7-1.7-1.2c-0.4-0.5-0.7-1.2-0.9-1.9c-0.2-0.8-0.3-1.7-0.4-2.7l-0.3-3.6c-0.1-1.3-0.4-2.4-0.8-3.1
			c-0.4-0.7-0.9-1.3-1.5-1.6c-0.6-0.4-1.2-0.5-1.8-0.6c-0.6-0.1-1.1-0.1-1.6-0.1h-4v14.4h4.4v0.6h-12.9V165.5z"/>
		<path id="XMLID_818_" class="st3" d="M186.5,157.5h0.4c0.3,1.4,0.7,2.6,1.1,3.6c0.5,1,1,1.8,1.6,2.4c0.6,0.6,1.2,1.1,1.8,1.5
			c0.6,0.4,1.2,0.6,1.8,0.8c0.6,0.2,1.2,0.3,1.8,0.3c0.6,0,1.1,0,1.6,0c1.4,0,2.6-0.2,3.5-0.6c0.9-0.4,1.6-1,2.2-1.6
			c0.5-0.7,0.9-1.4,1.1-2.1c0.2-0.8,0.3-1.5,0.3-2.1c0-0.9-0.2-1.7-0.5-2.4c-0.4-0.7-0.8-1.2-1.3-1.7c-0.5-0.5-1.1-0.9-1.8-1.2
			c-0.6-0.3-1.2-0.5-1.8-0.7l-4.6-1.4c-2.2-0.7-3.8-1.5-4.9-2.6c-1.1-1.1-1.6-2.6-1.6-4.4c0-1.2,0.2-2.3,0.6-3.3
			c0.4-1,1-1.9,1.8-2.7c0.8-0.7,1.7-1.3,2.7-1.8c1.1-0.4,2.3-0.6,3.6-0.6c0.9,0,1.7,0.1,2.3,0.2c0.6,0.1,1.2,0.3,1.6,0.6l1.2,0.5
			l1.1,0.3l0.7-0.1l0.5-0.7h0.6v7.3h-0.5c-0.2-1-0.4-1.9-0.8-2.8c-0.4-0.9-0.9-1.7-1.5-2.4c-0.6-0.7-1.4-1.2-2.2-1.6
			c-0.9-0.4-1.9-0.6-3-0.6c-0.6,0-1.3,0.1-2.1,0.3c-0.8,0.2-1.5,0.5-2.2,0.9c-0.7,0.4-1.2,1-1.7,1.7c-0.4,0.7-0.6,1.6-0.6,2.6
			c0,0.8,0.2,1.6,0.5,2.2c0.3,0.6,0.8,1.1,1.3,1.5c0.6,0.4,1.2,0.8,1.8,1.1c0.7,0.3,1.4,0.5,2.1,0.7l4.8,1.5
			c0.5,0.2,1.2,0.4,1.9,0.6c0.8,0.3,1.5,0.7,2.2,1.2c0.7,0.5,1.4,1.2,1.9,2.1c0.5,0.9,0.8,2,0.8,3.4c0,1.3-0.2,2.4-0.7,3.6
			c-0.4,1.1-1.1,2.1-2,3c-0.9,0.9-1.9,1.6-3.2,2.1c-1.2,0.5-2.7,0.8-4.2,0.8c-0.6,0-1.1,0-1.5,0l-1.2-0.1l-1.1-0.2l-1.2-0.3
			c-0.5-0.2-1.1-0.4-1.7-0.6c-0.6-0.2-1.2-0.3-1.6-0.3l-0.8,0.2l-0.4,0.6h-0.6V157.5z"/>
	</g>
	<polygon id="XMLID_763_" class="st3" points="23.5,268.6 24.6,293 221.5,293 221.5,228.6 	"/>
	<polygon id="XMLID_759_" class="st6" points="23.5,268.6 221.5,228.6 221.5,294 24.7,294 	"/>
	<g id="XMLID_551_">
		<defs>
			<rect id="XMLID_581_" x="5.8" y="8.6" width="233.5" height="284.4"/>
		</defs>
		<clipPath id="XMLID_54_">
			<use xlink:href="#XMLID_581_"  style="overflow:visible;"/>
		</clipPath>
		<path id="XMLID_757_" class="st7" d="M70.2,224.4c3.1,0.4,6.2,1,8.7,2.3c2.2,1.1,3.7,4.3,5.1,6.7c2.3,3.9,5.5,3.7,8.2,4.6
			c0.8-2,2-5.1,2-5.9c0-0.7-0.7-5.3-1.8-7.4c-0.9-1.5-3.1-2.3-4.5-3.3c-0.4-0.8-0.4-2-0.8-2.9v-7.4c1.3-2.9,2.2-2.6,2.2-4.7
			c0-0.7-0.9-3.8-0.9-4.5c0-0.7,2.2-7.6,3.3-11c0.4-1.2,1.4-3,2.6-4.1c1.7-1.6,4.2-3.1,6.5-4.1c3-1.4,8.9-2.4,9.6-2.4
			c0.7,0,7,1,10.2,1.8c0.7,0.1,14.2,7.4,14.2,9.8v14.9c0,0.7-2.3,5.2-2.3,5.9c0,0.7,0.6,7.2,0.6,7.9c0,2.3-5.9,11.3-6.3,12.3
			c-0.4,0.9-0.9,2.3-1.5,2.9c-0.9,0.9-3.1,2.5-3.1,3.2c0,0.7,0.6,4.4,0.9,6.7l0.4,0.5c4.5,1.3,12-8.2,16.1-8.2l14.8,1.2
			c0.7,0,8.1-6.5,13-8.4c3.5-1.4,11.3-1.3,12.1-1.3c0.2,0,0.8,0.1,1.5,0.2l1.1-0.8l-0.4-0.1c2.3-3.4,4.6-6.7,7.4-9.8
			c3.6-4,8.1-8.7,12-13.2c3.6-4.1,16.3-21.4,16.3-22.8c0-0.7-1.8-11.5-3-17c-0.5-2.1-2.2-6-2.2-6.8c0-0.7,2.3-3.1,3.1-3.1
			c0.7,0,1,0.9,1.8,0.9c0.7,0,2.8-1.2,3.5-1.2c2.5,0,3,5.7,3.4,6.8c1.1,2.8,3.1,5.5,4.2,8.5c0.3,0.8-0.2,2.1,0.2,3.2
			c0.5,1.6,1.8,3.1,2.4,4.7c0.8,2.2,2.2,6.8,2.2,7.5c0,6-3.8,6.2-6.3,13.4c-5.2,14.8-16.6,30-24.9,44.8
			c-7.5,5.1-14.7,11.3-22.8,16.4c-2.6,1.6-6.2,2.1-9.4,3.4c-5.3,2.2-11.1,3.7-15.8,7c-2.5,1.8-3,5.6-4.8,8.4c-4.7,7.2-5.2,14-7,21.1
			l-1.2,5.2l-2.4,2.2l-75.2,0.2l-1.3-7l-0.1,0l-0.7-18.3c-0.9-5.8-1.1-11.8-2.4-17.6c-0.4-2-3.1-3.6-3.6-5.6
			c-1.5-5.4-1.1-11.8-3.4-17.3c-3.3-8.1-9.9-15-13.3-23.2c-1.9-4.6-1.2-10.5-2.8-15.2c-0.8-2.3-3.1-4-3.9-6.2
			c-1-2.8-1.3-5.9-1.9-8.8c-3.8-16.5-2.9-32.6-5.8-48.9c-0.5-2.9-3.9-5.3-5.8-8.4c-1.3-2.2-2.1-5-2.2-7.4c-0.2-7,0.3-9.1,0.3-9.8
			c0-0.7,0.1-2.2-0.1-3c-0.3-1.1-6.3-11.2-6.3-14.1v-2.7c0.7-0.4,1.8-1.2,2.5-1.2c0.5,0,2.8,2.6,2.8,2.1c0-0.7-1.7-6.4-1.7-7.2
			c0-2.4,1.5-3.7,3.2-3.7c2.5,0,5.9,9,6,9.4c0.2-0.3,0.1-0.4,0.1-1.2c0-0.7-0.9-5.8-0.9-6.6v-5.1c0.7-0.3,1.5-1.2,2.2-1.2
			c1.2,0,3.7,1.2,3.8,1.8c1.6,6.1,3,12.6,4.7,18.9c0.4-2.5,0.7-5.4,0.9-8.1c0-0.6,0-7.5,2.6-7.5c2.6,0,3.6,1.7,2.9,4.3V104
			c0.4,2,0.7,4,1.2,6c2.6-2.9,3.2-5.2,4.6-7.8c1-1.8,2.9-2.7,4.4-3.9H53c1.6,0,2.5,2.3,2.5,2.3c0,1.1-7.4,11.7-8.4,14.6
			c-1.1,3.4-1,7-1.8,10.5c-0.1,0.6,0.2,1.5,0.1,2.3c-1.9,2.8-4.9,8.1-4.9,8.9c0,0.7,3.8,15.6,6.2,23.4c0.7,2.4,2.9,4.6,3.6,7
			c1.9,6.3,1.7,13.3,4.3,19.3c2.1,4.9,8.4,8.3,10.7,13.5c3.1,7.1,3.3,15.6,4.8,23.3l-0.5-0.1L70.2,224.4z"/>
		<path id="XMLID_587_" class="st8" d="M83.4,282.4c4.2,1.9,9.3,2.6,13.8,4.4c-5.4-0.6-11.9-2.2-17.1-3.4c-0.2,0.3-0.2,0-0.2,0.7
			c0,0.7,0.5,6.9,1.8,9.9c1.4,3.2,4.3,6.1,6.2,9.1l-0.1,0.8l0.5,0.5l0.7-0.6c-0.2,1-0.2,1.1-1,1.1c-1.2,0-2.2-2.2-3.5-0.9
			c-0.7-0.6-1-1.3-1.2-1.8l-1,0.6c-0.2-1.1-1.7-1.7-1.9-1.7c-0.7,0-0.3,0.9-1,0.9c-0.7,0-2.4-0.9-3.4-1.6c-0.5,0.1-1,0.1-1.7-0.1
			l-0.6-0.9l-1.4,0.6c-0.9,1.7-1,4.6-3.6,6.7c-0.4-2.2-0.7-4.5-0.9-6.5c-2.9,1.5-3.5,1.1-5.9,1.5l-0.7-18.3l-0.2-1.2H83.4z
			 M138.8,282.4c0.7,1.5,1.7,3,2.5,4.5c0.7-1.4,1.4-2.9,2-4.5h4.2c-3.4,6.3-4,12.5-5.6,18.8l-1.3-0.5l-1,0.2
			c0.2,0.3-0.4,2.1-1.1,2.7c0.8-3.7,1.4-7.5,2-10.9l-19.1-6.8c6.5,0.8,12.4,2.9,18.5,3.2c-0.9-2.2-2.3-4.3-3.6-6.6L138.8,282.4z"/>
	</g>
	<g id="XMLID_462_">
		<path id="XMLID_508_" class="st3" d="M60.8,258c3.8,4.4,10.5,9,10.5,9.6c0,0.7-0.9,1.7-1.3,2.3c-1.1-0.6-2.8-1.7-4-1.8
			c1.4,1.3,3.2,2.8,4.5,4.2c2.1-2.7,4.7-9,5.6-14.3l1.3,0c-0.7,4.2-1.2,7.2-1.2,7.5c0,0.7-0.5,10.4,2.7,13.8c1.2,1.3,2.7,2.3,4.4,3
			H60.9c-0.7-5.5-1.1-11-2.3-16.4c-0.4-2-3.1-3.6-3.6-5.6c-0.2-0.8-0.4-1.6-0.6-2.5H60.8z M114.5,258c-1.5,1.5-2.6,2.6-2.6,2.6
			c-0.6,0-5.9-1.1-8.7-2.6H114.5z M134.1,258c0.8,2.7,1.1,5.5,1.9,8.1c2.7-2.5,4.6-5.3,6.4-8.1h1.6l-0.5,1v1l3.9-2h2.6
			c-4.2,2.5-8.8,5-11.2,9.2c-0.7,1.2-2.5,2.7-2.5,3.4c0,0.7,1,6.8,1.8,10.2l0.6,1.5h-2.4c-0.4-0.7-0.7-1.3-1.1-2
			c-0.8-1.6-0.5-3.9-0.8-5.9c-0.8-5.5-1.3-11.2-3.2-16.5L134.1,258z M183.7,258c-1.6,1.1-3.2,2.2-4.9,3.3c-2.6,1.6-6.2,2.1-9.4,3.4
			c-5.3,2.2-11.1,3.7-15.8,7c-2.5,1.8-3,5.6-4.7,8.4c-0.5,0.8-1,1.5-1.4,2.3h-4.2c1.7-4.2,3-9.1,4.7-12.9c6.7-2.8,13.5-6.5,20.5-8.6
			c2.3-0.7,4.8-1.7,7.4-2.9H183.7z"/>
		<path id="XMLID_500_" class="st3" d="M56.2,243.4c1,4.1,0.9,8.8,2.9,12.3c0.4,0.7,1,1.6,1.7,2.3h-6.4c-0.9-4.7-0.9-10-2.8-14.7
			H56.2z M75,243.4c1,1.8,1.8,3.6,2.4,5.2c0.2-1.5,0.5-3.3,0.9-5.2h1.9c-0.9,4.9-1.9,10.4-2.6,14.7h-1.3c0.3-1.3,0.4-2.6,0.4-3.7
			v-1.7c-0.8-0.2-1.6-0.1-6,0.1c-1.2,0-2.6,0.9-4.1,1.5l-0.7-0.3l0.4-1c3.2-1,6.4-1.6,9.6-2.7c-0.5-2.2-1.3-4.5-2.2-6.7H75z
			 M115,243.4l4.7,5.2c-0.4,0.6-7.7,9.1-9.1,9.1c-0.7,0-4.5-1.1-6.4-2.2c-1.4-0.7-3-2.3-3.8-3.5c-1.5-2.2-3.3-6.1-4.3-8.6h-2.5
			c3.4,4.2,5.1,9.6,8,13.5c0.3,0.4,0.9,0.8,1.6,1.1h11.3c3.3-3.3,8.7-8.6,9.5-8.6c0.7,0,1.6,0.3,2.1,0.3c1.7,2.5,4.1,5.2,5.1,8.1
			l0.1,0.2l2.8,0l-0.2-0.6c-1.1-3-4.3-8.4-4.3-9.2c0-0.1,3.6-2.9,6.6-4.9h-5.6c-2.6,1.9-5.2,3.4-7.2,2.9l-0.5-0.5
			c-0.1-0.7-0.2-1.5-0.4-2.3H115z M154.8,243.4c-2.2,1.8-4.8,4.1-7.5,6.1l-0.7-0.2c1.6-1.9,3.1-4,4.8-6H154.8z M202.4,243.4
			l-0.9,1.5c-6,4.1-11.7,8.8-17.9,13.1h-7.9c7.8-3.7,16.4-9.5,23-14.7H202.4z M142.4,258c1.6-2.5,3-5,4.8-7.4c-1,2.5-2,5.1-3.1,7.4
			H142.4z M147.5,258l8.8-4.4c-1.7,1.7-3.9,3.1-6.2,4.4L147.5,258z"/>
		<path id="XMLID_491_" class="st3" d="M47.1,228.7c2.9,3.7,5.8,7.3,8,11.7c0.4,0.9,0.8,1.9,1,2.9h-4.4l-0.1-0.2
			c-2.1-5.1-5.5-9.7-8.6-14.5H47.1z M51.6,228.7c1.5,3.1,3.1,5.9,4.4,8.4c-2.8-2.7-5.4-5.7-7.7-8.4H51.6z M81.1,228.7
			c1.1,1.4,2,3.2,2.9,4.7c2.3,3.9,5.5,3.7,8.2,4.6c0.8-2,2-5.1,2-5.9c0-0.4-0.2-1.8-0.5-3.4h2.6l0.9,6.5c-0.6,2-1.8,5.1-1.8,5.9
			c0,0.3,0.3,1.1,0.8,2.3h-2.6l-0.8-0.9c-1.7-1.8-5.2-1.7-7.3-3.1c-1.1-0.7-2.1-2.2-3.2-3.4c-0.2,0-0.8,0.2-0.9,0.8
			c-0.4,1.9-0.8,4.2-1.3,6.6h-1.9c0.8-4.4,1.6-9.1,1.6-9.6c0-1.7-3.7-4-5.4-5H81.1z M101.5,228.7l13.5,14.6h7.7
			c-0.3-1.9-0.6-3.8-0.6-4.3c0-0.7,2.2-2.4,3.1-3.2c0.6-0.6,1.1-1.9,1.5-2.9c0.2-0.4,1.2-2.1,2.4-4.2h-2.7c-1.4,2.4-3,4.7-4.1,6.6
			c-3.7-0.1-8.4-0.3-12.1-2.2c-2.2-1.1-4.5-2.7-6.6-4.5H101.5z M183,228.7l-0.5,0.5l-1-0.4l0.1-0.1H183z M211.4,228.7
			c-3,4.9-6.2,9.8-8.9,14.6h-3.6l0.6-0.5c3.2-2.5,4.6-7.2,6.8-10.7c0.7-1.2,1.5-2.3,2.2-3.5H211.4z M73.5,243.4
			c-1-2.4-2.3-4.8-3.9-7.2v-1.1c1.7,2.3,3.7,5.3,5.3,8.3L73.5,243.4z M130.6,243.4c3.3-2.4,6.6-5.4,8.9-5.4l14.8,1.2
			c0.7,0,8.1-6.5,13-8.4c3.5-1.4,11.3-1.2,12.1-1.2c1.1,0,10.3,2,12.7,3.7c-0.4,0.1-0.3,0.4-1,0.4c-0.7,0-6.9-1.2-7.6-1.2
			c-0.7,0-7.9,0.4-8.7,0.3c-7.5,1.4-10.4,3.1-17.6,8.5c-0.4,0.3-1.1,1.2-2,1.9l-0.3,0.2h-3.3l0.7-0.8c-0.5-0.5-1.3-0.6-2.2-0.7
			c-5.3-0.5-9.4-0.6-10.1-0.6c-0.4,0-2,0.9-3.7,2.1H130.6z"/>
		<path id="XMLID_476_" class="st3" d="M41.2,199.4c0.3,1.3,0.9,2.4,1.1,3.6c1.5,8.7,5.5,17.9,9.4,25.8h-3.2c-1-1.2-1.9-2.3-2.8-3.3
			l-1-0.1c0.8,1.2,1.6,2.3,2.5,3.4h-4.1c-1.8-2.8-3.5-5.7-4.8-8.7c-1.9-4.7-1.2-10.5-2.8-15.3c-0.7-2-2.6-3.6-3.6-5.4H41.2z
			 M48.8,199.4c2.6,2.9,5.4,5.9,7.5,9.4c2.7,4.7,4.5,10.3,6.8,15.7c-5.7-7.9-10.6-17-14.6-25.1H48.8z M65.1,199.4l0.3,0.6
			c3.1,7.1,3.3,15.6,4.7,23.3c-0.7-0.3-1.4-0.3-1.9-0.7c-1.9-5.5-3.6-11.3-5.8-16.9c-0.8-2-2.1-4.1-3.7-6.3H65.1z M131.7,199.4v7.8
			l-0.7,1c-2.1-1.2-5.7-2.9-6.4-2.9c-1.4,0-4,4.5-4,4.7c0,0.7,2.6,8.4,2.6,9.1c0,0.7-1.2,1.4-1.7,1.9c0,0-0.3,0.2,0.4,0.2
			c0.7,0,2.5-1.6,2.5-2.3c0-0.7-1.5-5.4-2-9h1.2c0.7,0,4.2,1.7,5.9,2.7c0.4,2,0.7,5.3,0.7,6c0,3.2-1.9,6.9-3.9,10.3h2.7
			c1.8-3,3.8-6.8,3.8-8.1c0-0.7-0.6-7.2-0.6-7.9c0-0.7,2.3-5.2,2.3-5.9v-7.4H131.7z M209.8,199.4c-7.7,10.3-20.8,23-26.8,29.3h-1.4
			c2.3-3.3,4.6-6.6,7.3-9.6c3.6-4,8.1-8.7,12-13.2c1.1-1.2,3-3.7,5.1-6.5L209.8,199.4z M226.8,199.4l-0.2,0.7
			c-3.3,9.4-9.2,19-15.2,28.6h-2.9c3.4-5.3,7-10.7,9.6-16.1c2-4.1,3.6-8.7,5.3-13.2H226.8z M74.5,228.7l-0.4-0.2
			c-2.7-1.5-5.3-3.1-8-4.8c4.3,0.8,9.1,1,12.8,2.9c0.8,0.4,1.6,1.1,2.2,2H74.5z M93.7,228.7c-0.3-1.4-0.7-3-1.3-4
			c-0.9-1.5-3.1-2.3-4.5-3.3c-0.4-0.8-0.4-2-0.9-2.9v-7.4c1.3-2.9,2.2-2.6,2.2-4.6c0-0.7-0.9-3.8-0.9-4.5c0-0.3,0.3-1.2,0.7-2.6h2.4
			c-0.3,1.2-0.4,2-0.4,2.3c0,0.7,1.2,5.4,1.9,8c1.4,0.7,2.9,1.6,4,2.3c-1.1,0.2-2.2,0.2-3.2-0.1l-0.2,1.4c-0.3-0.2-2.3-2.9-3.5-2.9
			c-0.7,0-1.6,0.7-1.6,1.5c0,0.7,0.4,5.8,1.9,8.1c1.6,2.6,4.6,3.9,6.6,5.5c-0.7,0.3-1,0.4-0.9,1.2l0.3,2H93.7z M103.5,228.7
			c-1.4-1.1-2.8-2.3-4.1-3.3l-0.5,0.5l2.6,2.9H103.5z M118.8,223.4c0.8,0,3.9,1.4,4.4,2.2l-0.4,0.7c-1.2-0.9-3.6-1.8-4.7-1.5
			c-0.3,0-0.6-0.3-4.8,0l-0.6-0.7C113.6,223.7,118.1,223.4,118.8,223.4 M122,220.1l-1.4,0.3C120.9,219.9,121.7,219.3,122,220.1
			 M118.1,218.7h1.6c-0.3,0.5-0.6,1.1-1.4,1.1h-1.6C117.1,219.3,117.4,218.7,118.1,218.7 M119.1,215.5c-0.3,1.7-1.3,1.8-2.4,2.4
			c-0.6,0.4-0.9,1.4-1.7,1.7v-1.3C115,216.6,118.3,215.9,119.1,215.5 M113,202.3c0.7,0,5.5,1.5,8.2,2.5c-1.2,1.3-2.9,3.4-3.7,3.4
			c-0.7,0-1.2-1-1.8-1.1c-2-0.4-5.7-1.2-6.4-1.2c-0.7,0-0.1,0.7-2.2,0.8C108.9,204.9,112.2,202.3,113,202.3"/>
		<path id="XMLID_467_" class="st3" d="M28.6,160.3c1,8.7,2.2,17.5,3.4,26.1c0.2-0.8,0.1-1.9-0.6-14.9c1.9,7.1,6.8,27.8,8.8,27.8
			h0.9l0,0.1h-9.2l-0.3-0.8c-1-2.8-1.3-5.9-1.9-8.8c-2.3-10-2.9-19.7-3.6-29.5H28.6z M46.9,160.3c0.8,2.4,2.9,4.5,3.6,6.9
			c1.9,6.3,1.7,13.3,4.3,19.3c2,4.7,7.9,8,10.4,12.9h-6.3c-2.9-4.1-6.7-8.4-8.7-12.8c-1.7-3.7-1.5-8.3-2.2-12.4
			c-0.9-4.8-2.4-9.3-3.9-14H46.9z M213.9,160.3c0.4,1.1,1.3,2.8,1.5,3.9c1.2,6.1,3.3,17.8,3.3,18.5c0,0.7-1,3.4-1.9,5.1
			c-2,3.6-4.1,7.5-6.8,11.1l-0.3,0.4h-3.7c5-6.6,11.2-15.3,11.2-16.3c0-0.7-1.8-11.5-3-17c-0.4-1.6-1.5-4.2-2-5.8H213.9z M218,160.3
			l0.1,1.5c0.2,0,0.2,0.3,0.9,0.3c0.7,0,0.9-1.1,1.7-1.7v2.7c-0.7-0.1-1.6,0.2-2.3,0c0.3,3.8,0.6,6,0.6,6.8c0,0.7-0.3,1-0.8,1.3
			c-0.6-3.5-0.9-7.2-1.6-10.8L218,160.3z M223.2,160.3c0.3,1.1,0.4,2.1,0.6,2.5c1.1,2.8,3.1,5.5,4.2,8.5c0.3,0.8-0.2,2.1,0.2,3.2
			c0.5,1.6,1.9,3.1,2.4,4.7c0.8,2.2,2.2,6.8,2.2,7.5c0,5.8-3.5,6.2-6,12.7h-3.4c0.8-2,1.6-4,2.5-5.9c0.7-1.4,2.8-2.5,3.9-3.8
			c0.6-0.7,0.4-2,0.4-2.7c0-3.1-1.7-7.4-2.8-9.1c-0.2,0.3-0.1-0.2-0.1,0.6c0,0.7,0.6,3.3,0.8,5.2l-1.1,0.3c0-1.3,0.3-2.5-0.1-3.6
			c-2.4-6.3-4.6-11.2-4.6-17.3v-2.9H223.2z M48.5,199.4l-0.5-0.9l0.8,0.9H48.5z M89,199.4c0.7-2.5,1.9-6.2,2.6-8.5
			c0.4-1.2,1.4-3,2.6-4.1c1.8-1.6,4.3-3.1,6.5-4.1c3-1.4,8.8-2.4,9.6-2.4c0.7,0,7,1,10.2,1.8c0.7,0.2,14.2,7.4,14.2,9.8v7.5h-2.9
			v-4.3c0-2.4-1.9-4.4-4.3-5.9c-4-2.6-8.6-4-12.8-5.3c-1.4-0.4-4.2-1-4.9-1c-0.9,0-9.1,1.9-10.2,2.7c-1.9,1.4-4.5,3.1-5.5,5.3
			c-1.1,2.2-2.1,6-2.6,8.5H89z M223.5,166.8c0.8,0.9,1.7,2.4,2,3.9v3.1C224.6,171.7,224,169.3,223.5,166.8"/>
		<path id="XMLID_463_" class="st3" d="M26,160.3c-0.5-6.4-1-12.9-2.1-19.4c-0.5-2.9-3.9-5.3-5.8-8.4c-1.3-2.2-2.1-5-2.1-7.4
			c-0.2-7,0.3-9.1,0.3-9.8c0-0.7,0.2-2.2-0.1-3c-0.3-1.1-6.3-11.2-6.3-14.1v-2.7c0.7-0.4,1.8-1.2,2.5-1.2c0.5,0,2.8,2.6,2.8,2.1
			c0-0.7-1.8-6.4-1.8-7.2c0-2.4,1.5-3.7,3.2-3.7c2.5,0,5.9,9,6,9.4c0.2-0.2,0.1-0.4,0.1-1.2c0-0.7-0.9-5.8-0.9-6.6v-5.1
			c0.7-0.4,1.5-1.2,2.2-1.2c1.2,0,3.7,1.2,3.8,1.8c1.6,6.1,3,12.6,4.7,18.9c0.4-2.5,0.7-5.4,0.9-8.1c0-0.6,0-7.5,2.6-7.5
			c2.6,0,3.6,1.7,2.9,4.3V104c0.4,2,0.7,4.1,1.2,6c2.6-2.9,3.2-5.2,4.6-7.8c1-1.8,2.9-2.7,4.4-3.9H53c1.6,0,2.5,2.3,2.5,2.3
			c0,1.1-7.4,11.7-8.4,14.6c-1.1,3.4-1,7-1.8,10.5c-0.1,0.6,0.2,1.5,0.1,2.2c-2,2.8-4.9,8.1-4.9,8.9c0,0.7,3.8,15.6,6.2,23.4l0,0.2
			h-3c-0.6-1.8-1.2-3.7-1.7-5.7c-1.7-6-3.6-17.8-3.6-18.5c0-2.9,4.4-6.8,5.2-10.3c1.1-4.6,0.9-9.9,2.8-14.4
			c1.6-3.8,4.9-7.1,7.5-10.5c-0.6-1.1-2.1-1.6-2.9-1.6c-1.8,0-3,0.9-4.6,3.2c-0.9,1.2-1,3.1-1.9,4.4c-3.3,4.4-7.2,9.6-10.4,15.2
			c-1.2,2.2-1.5,4.7-2.4,6.9h-0.6c0-0.8,1.1-5.4,2.1-7.9c0.9-2.2,4.3-5.4,4.3-6.1c0-0.7-0.2-0.1-0.3-0.3l0.4,0.1
			c0.2-0.5,0.8-1,0.8-1.8c0-0.7-0.7-2.2-0.7-3.4c0.1-2.2-0.8-3.2-0.8-4.1l0.6-17.4l-1.6-1.3c-0.5,0.8-0.4,1-0.4,1.9
			c0,0.7-1.3,10.5-2.2,16.5l-0.8,2.1c-1.4-0.9-1.9-5.8-2.1-5.5c-0.1-0.6-1.6-6.3-1.7-6.9c-1.1-5.8-2-6.7-3.1-12.9l-1.3-0.1L23.5,83
			c-0.2,0.8,0,3.3,0.1,4c0.8,5.8,2.8,16.6,3.2,20.7l-0.5,0.8c-0.4-1.3-0.6-2.5-1.1-3.6c-2.7-5.6-5.5-11.4-7.9-17.3
			c-0.2-0.3,0.1-0.2-0.6-0.2c-0.7,0-1.4,0.3-1.9,0.8c1.8,6.4,4.7,15,7.6,22l-0.8,0.7c-2.3-5-5.9-10-9.1-14.9h-1
			c0.1,0.2-0.2,0.5-0.2,1.2c0,0.7,3.8,7.9,5.7,12.1c0.4,0.8,0.7,2.1,0.8,3.3v12.3c-0.2,4.3,6.7,9.5,8.2,14.3
			c1.9,6.1,1.5,12.9,2.2,19.4c0.1,0.6,0.1,1.3,0.2,1.9H26z M212.3,160.3l-0.3-1c0-0.7,2.3-3.1,3.1-3.1c0.7,0,1,0.9,1.8,0.9
			c0.7,0,2.8-1.2,3.5-1.2c1.6,0,2.4,2.4,2.8,4.4h-1v-1.1c0-2.1-2.1-1.6-2.3-1.6c-0.6,0-2.1-0.3-2.1,0.9c0,0.4,0.1,1.1,0.2,1.7h-1.4
			l-0.1-0.4c-0.1-0.7-1.3-1.1-1.6-1.7c-0.5,0-1.3,0.6-1.3,1.3l0.2,0.7H212.3z M34.3,114.4l1.6,0.4c-4,0.5-8.7,1.3-13,3.9l-0.7-0.4
			C25.8,116.1,30.2,115.3,34.3,114.4"/>
	</g>
	<rect id="XMLID_461_" x="24.1" y="265.6" class="st3" width="196.5" height="28.9"/>
	<g id="XMLID_450_">
		<path id="XMLID_460_" class="st0" d="M68.4,285v-10.6c0-0.7,0-1.1,0-1.3l-0.3-0.2c-0.1,0-0.6,0.1-1.4,0.4v-0.2l1.1-0.6l0.9-0.7
			l1-1.1H70V285c0,0.6,0.1,1,0.4,1.3c0.3,0.3,0.7,0.4,1.3,0.4v0.2h-5.1v-0.2C67.8,286.7,68.4,286.2,68.4,285"/>
		<path id="XMLID_457_" class="st0" d="M74,287.3v-0.4c0.7-0.1,1.3-0.3,1.9-0.5c0.6-0.2,1.3-0.5,2-1c0.7-0.5,1.3-1.1,1.9-1.9
			c0.7-1,1.2-2,1.5-3c0.3-1.1,0.5-2.2,0.5-3.5l0-0.1c-0.3,0.6-0.7,1.1-1.3,1.6c-0.6,0.5-1.4,0.7-2.6,0.7c-1.3,0-2.4-0.4-3.2-1.2
			c-0.8-0.8-1.2-1.8-1.2-3c0-0.6,0.1-1.2,0.4-1.7l1-1.4c0.4-0.4,1-0.7,1.6-1c0.6-0.2,1.3-0.3,2-0.3c0.9,0,1.7,0.1,2.4,0.5
			c0.7,0.3,1.2,0.8,1.6,1.4c0.4,0.6,0.7,1.2,0.9,1.9c0.2,0.7,0.3,1.4,0.3,2.2l-0.1,1.4c-0.1,0.5-0.2,1.2-0.5,1.9
			c-0.2,0.7-0.6,1.5-1,2.3c-0.5,0.8-1,1.5-1.7,2.2c-0.7,0.7-1.4,1.3-2.3,1.6c-0.8,0.4-1.5,0.7-2.1,0.8
			C75.4,287.1,74.7,287.2,74,287.3 M81.8,276.2c0-0.8-0.1-1.6-0.3-2.4c-0.3-0.8-0.6-1.5-1.2-2c-0.5-0.5-1.2-0.7-2.1-0.7
			c-0.8,0-1.6,0.3-2.2,0.9c-0.6,0.6-0.9,1.4-0.9,2.6c0,0.7,0.1,1.4,0.4,2c0.3,0.6,0.7,1.1,1.2,1.5c0.5,0.3,1.1,0.5,1.7,0.5
			c0.6,0,1.2-0.2,1.8-0.5C81,277.7,81.4,277.1,81.8,276.2"/>
		<path id="XMLID_454_" class="st0" d="M98.6,279c0,1.2-0.2,2.3-0.5,3.3c-0.3,1-0.8,1.9-1.4,2.6c-0.6,0.8-1.3,1.3-2.1,1.8
			c-0.8,0.4-1.6,0.6-2.4,0.6c-0.8,0-1.5-0.2-2.3-0.6c-0.8-0.4-1.5-0.9-2.1-1.6c-0.6-0.7-1.1-1.6-1.5-2.6c-0.4-1-0.6-2.2-0.6-3.5
			c0-1.8,0.3-3.3,1-4.6c0.7-1.3,1.5-2.2,2.5-2.9c1-0.6,2-0.9,3-0.9c1.1,0,2.1,0.3,3.1,1c1,0.7,1.8,1.7,2.4,2.9
			C98.3,275.9,98.6,277.4,98.6,279 M96.8,279c0-1.2-0.2-2.5-0.5-3.6c-0.3-1.2-0.9-2.2-1.6-2.9c-0.7-0.8-1.5-1.1-2.5-1.1
			c-1,0-1.8,0.4-2.6,1.2c-0.7,0.8-1.2,1.9-1.6,3.1c-0.3,1.2-0.5,2.3-0.5,3.4c0,1.2,0.2,2.4,0.5,3.6c0.4,1.2,0.9,2.1,1.6,2.9
			c0.7,0.8,1.6,1.2,2.6,1.2c0.8,0,1.6-0.4,2.3-1.1c0.7-0.7,1.3-1.6,1.7-2.8C96.6,281.6,96.8,280.3,96.8,279"/>
		<path id="XMLID_451_" class="st0" d="M101,287.3v-0.4c0.7-0.1,1.3-0.3,1.9-0.5c0.6-0.2,1.3-0.5,2-1c0.7-0.5,1.3-1.1,1.9-1.9
			c0.7-1,1.2-2,1.5-3c0.3-1.1,0.5-2.2,0.5-3.5l-0.1-0.1c-0.3,0.6-0.7,1.1-1.3,1.6c-0.6,0.5-1.5,0.7-2.6,0.7c-1.3,0-2.4-0.4-3.2-1.2
			c-0.8-0.8-1.2-1.8-1.2-3c0-0.6,0.1-1.2,0.4-1.7l1-1.4c0.5-0.4,1-0.7,1.6-1c0.6-0.2,1.3-0.3,2-0.3c0.9,0,1.7,0.1,2.4,0.5
			c0.7,0.3,1.2,0.8,1.6,1.4c0.4,0.6,0.7,1.2,0.9,1.9c0.2,0.7,0.3,1.4,0.3,2.2l-0.1,1.4c-0.1,0.5-0.2,1.2-0.5,1.9
			c-0.2,0.7-0.6,1.5-1,2.3c-0.4,0.8-1,1.5-1.7,2.2c-0.7,0.7-1.5,1.3-2.3,1.6c-0.8,0.4-1.5,0.7-2.1,0.8
			C102.4,287.1,101.8,287.2,101,287.3 M108.8,276.2c0-0.8-0.1-1.6-0.4-2.4c-0.2-0.8-0.6-1.5-1.2-2c-0.5-0.5-1.2-0.7-2.1-0.7
			c-0.9,0-1.6,0.3-2.2,0.9c-0.6,0.6-0.9,1.4-0.9,2.6c0,0.7,0.1,1.4,0.4,2c0.3,0.6,0.7,1.1,1.2,1.5c0.5,0.3,1.1,0.5,1.7,0.5
			c0.6,0,1.2-0.2,1.8-0.5C108,277.7,108.5,277.1,108.8,276.2"/>
	</g>
	<polygon id="XMLID_449_" class="st1" points="122.3,277.2 123.5,277.6 124.4,278.4 124.8,279.7 124.4,280.9 123.5,281.8 
		122.3,282.1 121.1,281.8 120.2,280.9 119.8,279.7 120.2,278.4 121.1,277.6 	"/>
	<g id="XMLID_438_">
		<path id="XMLID_448_" class="st5" d="M143.9,286.9h-10.3c0.3-0.3,0.9-0.8,1.7-1.6c0.8-0.8,1.5-1.5,2.2-2.3
			c0.7-0.8,1.2-1.4,1.5-1.8c1-1.3,1.6-2.4,1.9-3.2c0.3-0.8,0.5-1.6,0.5-2.2c0-0.6-0.1-1.1-0.3-1.6l-0.8-1.2l-1.2-0.7l-1.3-0.2
			l-1.3,0.2l-1.4,0.8c-0.4,0.4-0.8,0.9-1,1.6h-0.3c0.1-0.6,0.4-1.2,0.7-1.8c0.4-0.6,0.9-1.1,1.6-1.6c0.7-0.5,1.5-0.7,2.5-0.7
			c1,0,1.7,0.2,2.4,0.6c0.7,0.4,1.2,0.9,1.5,1.6c0.3,0.7,0.5,1.4,0.5,2.1c0,0.9-0.2,1.8-0.6,2.7c-0.4,0.9-1,1.8-1.7,2.6
			c-0.7,0.8-1.4,1.6-2.2,2.4c-0.8,0.7-1.7,1.5-2.7,2.4l-0.4,0.3h7l1.1-0.3l0.7-0.8h0.2L143.9,286.9z"/>
		<path id="XMLID_445_" class="st5" d="M158.8,279c0,1.2-0.2,2.3-0.5,3.3c-0.4,1-0.8,1.9-1.4,2.6c-0.6,0.8-1.3,1.3-2.1,1.8
			c-0.8,0.4-1.6,0.6-2.4,0.6c-0.8,0-1.5-0.2-2.3-0.6c-0.8-0.4-1.5-0.9-2.1-1.6c-0.6-0.7-1.1-1.6-1.5-2.6c-0.4-1-0.6-2.2-0.6-3.5
			c0-1.8,0.3-3.3,1-4.6c0.7-1.3,1.5-2.2,2.5-2.9c1-0.6,2-0.9,3-0.9c1.1,0,2.1,0.3,3.1,1c1,0.7,1.8,1.7,2.4,2.9
			C158.5,275.9,158.8,277.4,158.8,279 M157,279c0-1.2-0.2-2.5-0.5-3.6c-0.3-1.2-0.9-2.2-1.6-2.9c-0.7-0.8-1.5-1.1-2.5-1.1
			c-1,0-1.8,0.4-2.5,1.2c-0.7,0.8-1.2,1.9-1.6,3.1c-0.4,1.2-0.5,2.3-0.5,3.4c0,1.2,0.2,2.4,0.5,3.6c0.3,1.2,0.9,2.1,1.6,2.9
			c0.7,0.8,1.5,1.2,2.5,1.2c0.8,0,1.6-0.4,2.3-1.1c0.7-0.7,1.3-1.6,1.7-2.8C156.8,281.6,157,280.3,157,279"/>
		<path id="XMLID_442_" class="st5" d="M173.5,279c0,1.2-0.1,2.3-0.5,3.3c-0.4,1-0.8,1.9-1.4,2.6c-0.6,0.8-1.3,1.3-2.1,1.8
			c-0.8,0.4-1.6,0.6-2.4,0.6c-0.8,0-1.5-0.2-2.3-0.6c-0.8-0.4-1.5-0.9-2.1-1.6c-0.6-0.7-1.1-1.6-1.5-2.6c-0.4-1-0.6-2.2-0.6-3.5
			c0-1.8,0.3-3.3,1-4.6c0.7-1.3,1.5-2.2,2.5-2.9c1-0.6,2-0.9,3-0.9c1.1,0,2.1,0.3,3.1,1c1,0.7,1.8,1.7,2.4,2.9
			C173.2,275.9,173.5,277.4,173.5,279 M171.7,279c0-1.2-0.2-2.5-0.5-3.6c-0.3-1.2-0.9-2.2-1.6-2.9c-0.7-0.8-1.5-1.1-2.5-1.1
			c-1,0-1.8,0.4-2.5,1.2c-0.7,0.8-1.2,1.9-1.6,3.1c-0.3,1.2-0.5,2.3-0.5,3.4c0,1.2,0.2,2.4,0.5,3.6c0.4,1.2,0.9,2.1,1.6,2.9
			c0.7,0.8,1.5,1.2,2.5,1.2c0.8,0,1.6-0.4,2.3-1.1c0.7-0.7,1.3-1.6,1.7-2.8C171.4,281.6,171.7,280.3,171.7,279"/>
		<path id="XMLID_439_" class="st5" d="M175.9,287.3v-0.4c0.7-0.1,1.3-0.3,1.9-0.5c0.6-0.2,1.3-0.5,2-1c0.7-0.5,1.3-1.1,1.9-1.9
			c0.7-1,1.2-2,1.5-3c0.3-1.1,0.5-2.2,0.5-3.5l-0.1-0.1c-0.3,0.6-0.7,1.1-1.3,1.6c-0.6,0.5-1.4,0.7-2.6,0.7c-1.3,0-2.4-0.4-3.2-1.2
			c-0.8-0.8-1.2-1.8-1.2-3c0-0.6,0.1-1.2,0.4-1.7l1-1.4c0.5-0.4,1-0.7,1.6-1c0.6-0.2,1.3-0.3,2-0.3c0.9,0,1.7,0.1,2.4,0.5
			c0.7,0.3,1.2,0.8,1.6,1.4c0.4,0.6,0.7,1.2,0.9,1.9c0.2,0.7,0.3,1.4,0.3,2.2l-0.1,1.4c-0.1,0.5-0.2,1.2-0.5,1.9
			c-0.2,0.7-0.6,1.5-1,2.3c-0.5,0.8-1,1.5-1.7,2.2c-0.7,0.7-1.5,1.3-2.3,1.6c-0.8,0.4-1.5,0.7-2.1,0.8
			C177.3,287.1,176.6,287.2,175.9,287.3 M183.7,276.2c0-0.8-0.1-1.6-0.4-2.4c-0.2-0.8-0.6-1.5-1.2-2c-0.5-0.5-1.2-0.7-2.1-0.7
			s-1.6,0.3-2.2,0.9c-0.6,0.6-0.8,1.4-0.8,2.6c0,0.7,0.1,1.4,0.4,2c0.3,0.6,0.7,1.1,1.2,1.5c0.5,0.3,1.1,0.5,1.8,0.5
			c0.6,0,1.2-0.2,1.8-0.5C182.9,277.7,183.4,277.1,183.7,276.2"/>
	</g>
</g>
</svg>
